<mxfile host="app.diagrams.net" modified="2024-05-30T13:03:33.799Z" agent="Mozilla/5.0 (Windows NT 10.0; Win64; x64) AppleWebKit/537.36 (KHTML, like Gecko) Chrome/125.0.0.0 Safari/537.36" etag="_Wlpd0GsZZM7nhmg9A6L" version="24.4.10" type="google">
  <diagram name="Page-1" id="10a91c8b-09ff-31b1-d368-03940ed4cc9e">
    <mxGraphModel grid="1" page="1" gridSize="10" guides="1" tooltips="1" connect="1" arrows="1" fold="1" pageScale="1" pageWidth="1100" pageHeight="850" background="none" math="0" shadow="0">
      <root>
        <mxCell id="0" />
        <mxCell id="1" parent="0" />
        <mxCell id="UioLQ09sQyiLT7YCH2Jn-2" value="&lt;font style=&quot;font-size: 20px;&quot;&gt;?&lt;/font&gt;&lt;div&gt;&lt;br/&gt;&lt;/div&gt;" style="whiteSpace=wrap;html=1;rounded=0;shadow=1;labelBackgroundColor=none;strokeWidth=2;fontFamily=Verdana;fontSize=12;align=center;" vertex="1" parent="1">
          <mxGeometry x="2690" y="-395.25" width="120" height="47" as="geometry" />
        </mxCell>
        <mxCell id="UioLQ09sQyiLT7YCH2Jn-3" value="Will there be enough charge to reach the point?" style="ellipse;whiteSpace=wrap;html=1;shadow=1;strokeWidth=2;" vertex="1" parent="1">
          <mxGeometry x="2570" y="-247" width="140" height="118.56" as="geometry" />
        </mxCell>
        <mxCell id="UioLQ09sQyiLT7YCH2Jn-4" style="edgeStyle=none;shape=connector;rounded=0;orthogonalLoop=1;jettySize=auto;html=1;exitX=0.5;exitY=0;exitDx=0;exitDy=0;entryX=0.5;entryY=1;entryDx=0;entryDy=0;labelBackgroundColor=default;strokeColor=default;align=center;verticalAlign=middle;fontFamily=Helvetica;fontSize=11;fontColor=default;endArrow=none;endFill=0;" edge="1" parent="1" source="UioLQ09sQyiLT7YCH2Jn-3" target="UioLQ09sQyiLT7YCH2Jn-2">
          <mxGeometry relative="1" as="geometry" />
        </mxCell>
        <mxCell id="UioLQ09sQyiLT7YCH2Jn-6" value="" style="edgeStyle=none;shape=connector;rounded=0;orthogonalLoop=1;jettySize=auto;html=1;labelBackgroundColor=default;strokeColor=default;align=center;verticalAlign=middle;fontFamily=Helvetica;fontSize=11;fontColor=default;endArrow=none;endFill=0;entryX=0.5;entryY=1;entryDx=0;entryDy=0;exitX=0.5;exitY=0;exitDx=0;exitDy=0;" edge="1" parent="1" source="UioLQ09sQyiLT7YCH2Jn-7" target="UioLQ09sQyiLT7YCH2Jn-2">
          <mxGeometry relative="1" as="geometry" />
        </mxCell>
        <mxCell id="UioLQ09sQyiLT7YCH2Jn-7" value="&lt;font style=&quot;font-size: 22px;&quot;&gt;→&lt;/font&gt;" style="whiteSpace=wrap;html=1;rounded=0;shadow=1;labelBackgroundColor=none;strokeWidth=2;fontFamily=Verdana;fontSize=12;align=center;" vertex="1" parent="1">
          <mxGeometry x="2840" y="-257" width="65" height="30" as="geometry" />
        </mxCell>
        <mxCell id="UioLQ09sQyiLT7YCH2Jn-8" value="" style="rounded=0;orthogonalLoop=1;jettySize=auto;html=1;endArrow=none;endFill=0;exitX=0.5;exitY=0;exitDx=0;exitDy=0;entryX=0.5;entryY=1;entryDx=0;entryDy=0;" edge="1" parent="1" source="UioLQ09sQyiLT7YCH2Jn-15" target="UioLQ09sQyiLT7YCH2Jn-7">
          <mxGeometry relative="1" as="geometry">
            <mxPoint x="2815" y="-174.5" as="sourcePoint" />
          </mxGeometry>
        </mxCell>
        <mxCell id="UioLQ09sQyiLT7YCH2Jn-9" value="" style="edgeStyle=none;shape=connector;rounded=0;orthogonalLoop=1;jettySize=auto;html=1;labelBackgroundColor=default;strokeColor=default;align=center;verticalAlign=middle;fontFamily=Helvetica;fontSize=11;fontColor=default;endArrow=none;endFill=0;entryX=0.5;entryY=1;entryDx=0;entryDy=0;" edge="1" parent="1" source="UioLQ09sQyiLT7YCH2Jn-10" target="UioLQ09sQyiLT7YCH2Jn-7">
          <mxGeometry relative="1" as="geometry" />
        </mxCell>
        <mxCell id="UioLQ09sQyiLT7YCH2Jn-10" value="Cancel task" style="whiteSpace=wrap;html=1;rounded=0;shadow=1;labelBackgroundColor=none;strokeWidth=2;fontFamily=Verdana;fontSize=12;align=center;fontColor=default;" vertex="1" parent="1">
          <mxGeometry x="2895" y="-181.5000000000001" width="80" height="40" as="geometry" />
        </mxCell>
        <mxCell id="UioLQ09sQyiLT7YCH2Jn-14" style="edgeStyle=none;shape=connector;rounded=0;orthogonalLoop=1;jettySize=auto;html=1;exitX=0.5;exitY=1;exitDx=0;exitDy=0;labelBackgroundColor=default;strokeColor=default;align=center;verticalAlign=middle;fontFamily=Helvetica;fontSize=11;fontColor=default;endArrow=none;endFill=0;" edge="1" parent="1" source="UioLQ09sQyiLT7YCH2Jn-7" target="UioLQ09sQyiLT7YCH2Jn-7">
          <mxGeometry relative="1" as="geometry" />
        </mxCell>
        <mxCell id="UioLQ09sQyiLT7YCH2Jn-15" value="Full stop" style="whiteSpace=wrap;html=1;rounded=0;shadow=1;labelBackgroundColor=none;strokeWidth=2;fontFamily=Verdana;fontSize=12;align=center;" vertex="1" parent="1">
          <mxGeometry x="2790" y="-187" width="80" height="45.5" as="geometry" />
        </mxCell>
        <mxCell id="UioLQ09sQyiLT7YCH2Jn-66" value="" style="group" connectable="0" vertex="1" parent="1">
          <mxGeometry x="-1210" y="-410" width="210" height="370" as="geometry" />
        </mxCell>
        <mxCell id="9AjhnX1oY22zLJzkxwzU-82" value="" style="rounded=0;whiteSpace=wrap;html=1;fontFamily=Helvetica;fontSize=11;fontColor=default;" vertex="1" parent="UioLQ09sQyiLT7YCH2Jn-66">
          <mxGeometry width="210" height="370" as="geometry" />
        </mxCell>
        <mxCell id="G0iIxaiOr9bZmsA65mvV-7" value="&lt;div&gt;Block library&lt;/div&gt;" style="text;html=1;align=center;verticalAlign=middle;resizable=0;points=[];autosize=1;strokeColor=none;fillColor=none;" vertex="1" parent="UioLQ09sQyiLT7YCH2Jn-66">
          <mxGeometry x="80" y="13.370000000000001" width="90" height="30" as="geometry" />
        </mxCell>
        <mxCell id="G0iIxaiOr9bZmsA65mvV-8" value="&lt;font style=&quot;font-size: 22px;&quot;&gt;→&lt;/font&gt;" style="whiteSpace=wrap;html=1;rounded=0;shadow=1;labelBackgroundColor=none;strokeWidth=2;fontFamily=Verdana;fontSize=12;align=center;" vertex="1" parent="UioLQ09sQyiLT7YCH2Jn-66">
          <mxGeometry x="90" y="53.37" width="80" height="40" as="geometry" />
        </mxCell>
        <mxCell id="G0iIxaiOr9bZmsA65mvV-9" value="&lt;font style=&quot;font-size: 20px;&quot;&gt;?&lt;/font&gt;" style="whiteSpace=wrap;html=1;rounded=0;shadow=1;labelBackgroundColor=none;strokeWidth=2;fontFamily=Verdana;fontSize=12;align=center;" vertex="1" parent="UioLQ09sQyiLT7YCH2Jn-66">
          <mxGeometry x="90" y="103.37" width="80" height="40" as="geometry" />
        </mxCell>
        <mxCell id="G0iIxaiOr9bZmsA65mvV-10" value="&lt;div&gt;Sequence&lt;/div&gt;" style="text;html=1;align=center;verticalAlign=middle;resizable=0;points=[];autosize=1;strokeColor=none;fillColor=none;" vertex="1" parent="UioLQ09sQyiLT7YCH2Jn-66">
          <mxGeometry y="58.37" width="80" height="30" as="geometry" />
        </mxCell>
        <mxCell id="G0iIxaiOr9bZmsA65mvV-11" value="Fallback" style="text;html=1;align=center;verticalAlign=middle;resizable=0;points=[];autosize=1;strokeColor=none;fillColor=none;" vertex="1" parent="UioLQ09sQyiLT7YCH2Jn-66">
          <mxGeometry x="10" y="108.37" width="70" height="30" as="geometry" />
        </mxCell>
        <mxCell id="G0iIxaiOr9bZmsA65mvV-12" value="&lt;font style=&quot;font-size: 22px;&quot;&gt;⇉&lt;/font&gt;" style="whiteSpace=wrap;html=1;rounded=0;shadow=1;labelBackgroundColor=none;strokeWidth=2;fontFamily=Verdana;fontSize=12;align=center;" vertex="1" parent="UioLQ09sQyiLT7YCH2Jn-66">
          <mxGeometry x="90" y="153.37" width="80" height="40" as="geometry" />
        </mxCell>
        <mxCell id="G0iIxaiOr9bZmsA65mvV-13" value="Parralel" style="text;html=1;align=center;verticalAlign=middle;resizable=0;points=[];autosize=1;strokeColor=none;fillColor=none;" vertex="1" parent="UioLQ09sQyiLT7YCH2Jn-66">
          <mxGeometry x="15" y="158.37" width="60" height="30" as="geometry" />
        </mxCell>
        <mxCell id="G0iIxaiOr9bZmsA65mvV-14" value="&lt;i&gt;action&lt;/i&gt;" style="whiteSpace=wrap;html=1;rounded=0;shadow=1;labelBackgroundColor=none;strokeWidth=2;fontFamily=Verdana;fontSize=12;align=center;" vertex="1" parent="UioLQ09sQyiLT7YCH2Jn-66">
          <mxGeometry x="90" y="203.37" width="80" height="40" as="geometry" />
        </mxCell>
        <mxCell id="G0iIxaiOr9bZmsA65mvV-15" value="Action" style="text;html=1;align=center;verticalAlign=middle;resizable=0;points=[];autosize=1;strokeColor=none;fillColor=none;" vertex="1" parent="UioLQ09sQyiLT7YCH2Jn-66">
          <mxGeometry x="15" y="208.37" width="60" height="30" as="geometry" />
        </mxCell>
        <mxCell id="G0iIxaiOr9bZmsA65mvV-18" value="Condition" style="text;html=1;align=center;verticalAlign=middle;resizable=0;points=[];autosize=1;strokeColor=none;fillColor=none;" vertex="1" parent="UioLQ09sQyiLT7YCH2Jn-66">
          <mxGeometry x="10" y="258.37" width="70" height="30" as="geometry" />
        </mxCell>
        <mxCell id="G0iIxaiOr9bZmsA65mvV-19" value="" style="rhombus;whiteSpace=wrap;html=1;strokeWidth=2;shadow=1;" vertex="1" parent="UioLQ09sQyiLT7YCH2Jn-66">
          <mxGeometry x="107.5" y="303.37" width="45" height="60" as="geometry" />
        </mxCell>
        <mxCell id="G0iIxaiOr9bZmsA65mvV-20" value="Decorator" style="text;html=1;align=center;verticalAlign=middle;resizable=0;points=[];autosize=1;strokeColor=none;fillColor=none;" vertex="1" parent="UioLQ09sQyiLT7YCH2Jn-66">
          <mxGeometry x="5" y="318.37" width="80" height="30" as="geometry" />
        </mxCell>
        <mxCell id="G0iIxaiOr9bZmsA65mvV-53" value="&lt;i&gt;condition&lt;/i&gt;" style="ellipse;whiteSpace=wrap;html=1;shadow=1;strokeWidth=2;" vertex="1" parent="UioLQ09sQyiLT7YCH2Jn-66">
          <mxGeometry x="90" y="255.37" width="80" height="39.5" as="geometry" />
        </mxCell>
        <mxCell id="48wu9TIcfDq3I_-A-M1b-1" value="&lt;font style=&quot;font-size: 22px;&quot;&gt;→&lt;/font&gt;" style="whiteSpace=wrap;html=1;rounded=0;shadow=1;labelBackgroundColor=none;strokeWidth=2;fontFamily=Verdana;fontSize=12;align=center;strokeColor=default;allowArrows=1;" vertex="1" parent="1">
          <mxGeometry x="1720" y="-1300" width="80" height="40" as="geometry" />
        </mxCell>
        <mxCell id="48wu9TIcfDq3I_-A-M1b-2" value="" style="rounded=0;html=1;labelBackgroundColor=none;startArrow=none;startFill=0;startSize=5;endArrow=none;endFill=0;endSize=5;jettySize=auto;orthogonalLoop=1;strokeWidth=1;fontFamily=Verdana;fontSize=12;exitX=0.5;exitY=1;exitDx=0;exitDy=0;entryX=0.5;entryY=0;entryDx=0;entryDy=0;" edge="1" parent="1" source="48wu9TIcfDq3I_-A-M1b-1" target="48wu9TIcfDq3I_-A-M1b-3">
          <mxGeometry x="-0.2168" y="-14" relative="1" as="geometry">
            <mxPoint as="offset" />
            <mxPoint x="-269" y="-500" as="sourcePoint" />
            <mxPoint x="-375" y="-410" as="targetPoint" />
          </mxGeometry>
        </mxCell>
        <mxCell id="48wu9TIcfDq3I_-A-M1b-3" value="&lt;font style=&quot;font-size: 20px;&quot;&gt;?&lt;/font&gt;&lt;div&gt;&lt;br/&gt;&lt;/div&gt;" style="whiteSpace=wrap;html=1;rounded=0;shadow=1;labelBackgroundColor=none;strokeWidth=2;fontFamily=Verdana;fontSize=12;align=center;" vertex="1" parent="1">
          <mxGeometry x="-315" y="-450" width="120" height="47" as="geometry" />
        </mxCell>
        <mxCell id="48wu9TIcfDq3I_-A-M1b-4" value="Is LIDAR working?" style="ellipse;whiteSpace=wrap;html=1;shadow=1;strokeWidth=2;" vertex="1" parent="1">
          <mxGeometry x="-630" y="-270.31" width="110" height="49.5" as="geometry" />
        </mxCell>
        <mxCell id="48wu9TIcfDq3I_-A-M1b-5" style="edgeStyle=none;shape=connector;rounded=0;orthogonalLoop=1;jettySize=auto;html=1;exitX=1;exitY=0;exitDx=0;exitDy=0;entryX=0.25;entryY=1;entryDx=0;entryDy=0;labelBackgroundColor=default;strokeColor=default;align=center;verticalAlign=middle;fontFamily=Helvetica;fontSize=11;fontColor=default;endArrow=none;endFill=0;" edge="1" parent="1" source="48wu9TIcfDq3I_-A-M1b-4" target="48wu9TIcfDq3I_-A-M1b-3">
          <mxGeometry relative="1" as="geometry" />
        </mxCell>
        <mxCell id="48wu9TIcfDq3I_-A-M1b-6" value="" style="edgeStyle=none;shape=connector;rounded=0;orthogonalLoop=1;jettySize=auto;html=1;labelBackgroundColor=default;strokeColor=default;align=center;verticalAlign=middle;fontFamily=Helvetica;fontSize=11;fontColor=default;endArrow=none;endFill=0;entryX=0.75;entryY=1;entryDx=0;entryDy=0;exitX=0.5;exitY=0;exitDx=0;exitDy=0;" edge="1" parent="1" source="48wu9TIcfDq3I_-A-M1b-29" target="48wu9TIcfDq3I_-A-M1b-30">
          <mxGeometry relative="1" as="geometry" />
        </mxCell>
        <mxCell id="48wu9TIcfDq3I_-A-M1b-7" value="" style="edgeStyle=none;shape=connector;rounded=0;orthogonalLoop=1;jettySize=auto;html=1;labelBackgroundColor=default;strokeColor=default;align=center;verticalAlign=middle;fontFamily=Helvetica;fontSize=11;fontColor=default;endArrow=none;endFill=0;" edge="1" parent="1" source="48wu9TIcfDq3I_-A-M1b-8" target="48wu9TIcfDq3I_-A-M1b-3">
          <mxGeometry relative="1" as="geometry" />
        </mxCell>
        <mxCell id="48wu9TIcfDq3I_-A-M1b-8" value="&lt;font style=&quot;font-size: 22px;&quot;&gt;→&lt;/font&gt;" style="whiteSpace=wrap;html=1;rounded=0;shadow=1;labelBackgroundColor=none;strokeWidth=2;fontFamily=Verdana;fontSize=12;align=center;" vertex="1" parent="1">
          <mxGeometry x="-400" y="-260.56" width="65" height="30" as="geometry" />
        </mxCell>
        <mxCell id="48wu9TIcfDq3I_-A-M1b-9" value="" style="rounded=0;orthogonalLoop=1;jettySize=auto;html=1;endArrow=none;endFill=0;exitX=0.5;exitY=0;exitDx=0;exitDy=0;" edge="1" parent="1" source="48wu9TIcfDq3I_-A-M1b-16" target="48wu9TIcfDq3I_-A-M1b-8">
          <mxGeometry relative="1" as="geometry">
            <mxPoint x="-425" y="-178.06" as="sourcePoint" />
          </mxGeometry>
        </mxCell>
        <mxCell id="48wu9TIcfDq3I_-A-M1b-10" value="" style="edgeStyle=none;shape=connector;rounded=0;orthogonalLoop=1;jettySize=auto;html=1;labelBackgroundColor=default;strokeColor=default;align=center;verticalAlign=middle;fontFamily=Helvetica;fontSize=11;fontColor=default;endArrow=none;endFill=0;" edge="1" parent="1" source="48wu9TIcfDq3I_-A-M1b-11" target="48wu9TIcfDq3I_-A-M1b-8">
          <mxGeometry relative="1" as="geometry" />
        </mxCell>
        <mxCell id="48wu9TIcfDq3I_-A-M1b-11" value="Restart LIDAR" style="whiteSpace=wrap;html=1;rounded=0;shadow=1;labelBackgroundColor=none;strokeWidth=2;fontFamily=Verdana;fontSize=12;align=center;fontColor=default;" vertex="1" parent="1">
          <mxGeometry x="-415" y="-195.06000000000012" width="80" height="40" as="geometry" />
        </mxCell>
        <mxCell id="48wu9TIcfDq3I_-A-M1b-12" value="" style="edgeStyle=none;shape=connector;rounded=0;orthogonalLoop=1;jettySize=auto;html=1;labelBackgroundColor=default;strokeColor=default;align=center;verticalAlign=middle;fontFamily=Helvetica;fontSize=11;fontColor=default;endArrow=none;endFill=0;exitX=0.5;exitY=0;exitDx=0;exitDy=0;" edge="1" parent="1" source="48wu9TIcfDq3I_-A-M1b-17" target="48wu9TIcfDq3I_-A-M1b-8">
          <mxGeometry relative="1" as="geometry">
            <mxPoint x="-175" y="-258.06" as="sourcePoint" />
          </mxGeometry>
        </mxCell>
        <mxCell id="48wu9TIcfDq3I_-A-M1b-13" value="" style="edgeStyle=none;shape=connector;rounded=0;orthogonalLoop=1;jettySize=auto;html=1;labelBackgroundColor=default;strokeColor=default;align=center;verticalAlign=middle;fontFamily=Helvetica;fontSize=11;fontColor=default;endArrow=none;endFill=0;exitX=0.25;exitY=1;exitDx=0;exitDy=0;entryX=0.5;entryY=0;entryDx=0;entryDy=0;" edge="1" parent="1" source="48wu9TIcfDq3I_-A-M1b-30" target="48wu9TIcfDq3I_-A-M1b-31">
          <mxGeometry relative="1" as="geometry">
            <mxPoint x="25" y="89.88" as="sourcePoint" />
          </mxGeometry>
        </mxCell>
        <mxCell id="48wu9TIcfDq3I_-A-M1b-14" value="" style="edgeStyle=none;shape=connector;rounded=0;orthogonalLoop=1;jettySize=auto;html=1;labelBackgroundColor=default;strokeColor=default;align=center;verticalAlign=middle;fontFamily=Helvetica;fontSize=11;fontColor=default;endArrow=none;endFill=0;entryX=0.75;entryY=1;entryDx=0;entryDy=0;exitX=0.5;exitY=0;exitDx=0;exitDy=0;" edge="1" parent="1" source="48wu9TIcfDq3I_-A-M1b-30" target="48wu9TIcfDq3I_-A-M1b-3">
          <mxGeometry relative="1" as="geometry">
            <mxPoint x="25" y="-380" as="sourcePoint" />
          </mxGeometry>
        </mxCell>
        <mxCell id="48wu9TIcfDq3I_-A-M1b-15" style="edgeStyle=none;shape=connector;rounded=0;orthogonalLoop=1;jettySize=auto;html=1;exitX=0.5;exitY=1;exitDx=0;exitDy=0;labelBackgroundColor=default;strokeColor=default;align=center;verticalAlign=middle;fontFamily=Helvetica;fontSize=11;fontColor=default;endArrow=none;endFill=0;" edge="1" parent="1" source="48wu9TIcfDq3I_-A-M1b-8" target="48wu9TIcfDq3I_-A-M1b-8">
          <mxGeometry relative="1" as="geometry" />
        </mxCell>
        <mxCell id="48wu9TIcfDq3I_-A-M1b-16" value="Reduce speed" style="whiteSpace=wrap;html=1;rounded=0;shadow=1;labelBackgroundColor=none;strokeWidth=2;fontFamily=Verdana;fontSize=12;align=center;" vertex="1" parent="1">
          <mxGeometry x="-505" y="-198.93" width="80" height="45.5" as="geometry" />
        </mxCell>
        <mxCell id="48wu9TIcfDq3I_-A-M1b-17" value="Recover speed" style="whiteSpace=wrap;html=1;rounded=0;shadow=1;labelBackgroundColor=none;strokeWidth=2;fontFamily=Verdana;fontSize=12;align=center;" vertex="1" parent="1">
          <mxGeometry x="-325" y="-195.06" width="80" height="40" as="geometry" />
        </mxCell>
        <mxCell id="48wu9TIcfDq3I_-A-M1b-18" value="&lt;font style=&quot;font-size: 22px;&quot;&gt;→&lt;/font&gt;" style="whiteSpace=wrap;html=1;rounded=0;shadow=1;labelBackgroundColor=none;strokeWidth=2;fontFamily=Verdana;fontSize=12;align=center;" vertex="1" parent="1">
          <mxGeometry x="-87.5" y="-264.37" width="65" height="30" as="geometry" />
        </mxCell>
        <mxCell id="48wu9TIcfDq3I_-A-M1b-19" value="" style="rounded=0;orthogonalLoop=1;jettySize=auto;html=1;endArrow=none;endFill=0;exitX=0.5;exitY=0;exitDx=0;exitDy=0;" edge="1" parent="1" source="48wu9TIcfDq3I_-A-M1b-23" target="48wu9TIcfDq3I_-A-M1b-18">
          <mxGeometry relative="1" as="geometry">
            <mxPoint x="-120" y="-254" as="sourcePoint" />
          </mxGeometry>
        </mxCell>
        <mxCell id="48wu9TIcfDq3I_-A-M1b-20" value="" style="edgeStyle=none;shape=connector;rounded=0;orthogonalLoop=1;jettySize=auto;html=1;labelBackgroundColor=default;strokeColor=default;align=center;verticalAlign=middle;fontFamily=Helvetica;fontSize=11;fontColor=default;endArrow=none;endFill=0;exitX=0.5;exitY=0;exitDx=0;exitDy=0;" edge="1" parent="1" source="48wu9TIcfDq3I_-A-M1b-25" target="48wu9TIcfDq3I_-A-M1b-18">
          <mxGeometry relative="1" as="geometry">
            <mxPoint x="100" y="-187.5" as="sourcePoint" />
          </mxGeometry>
        </mxCell>
        <mxCell id="48wu9TIcfDq3I_-A-M1b-21" value="Restart LIDAR" style="whiteSpace=wrap;html=1;rounded=0;shadow=1;labelBackgroundColor=none;strokeWidth=2;fontFamily=Verdana;fontSize=12;align=center;fontColor=default;" vertex="1" parent="1">
          <mxGeometry x="-95" y="-47.500000000000114" width="80" height="40" as="geometry" />
        </mxCell>
        <mxCell id="48wu9TIcfDq3I_-A-M1b-22" style="edgeStyle=none;shape=connector;rounded=0;orthogonalLoop=1;jettySize=auto;html=1;exitX=0.5;exitY=1;exitDx=0;exitDy=0;labelBackgroundColor=default;strokeColor=default;align=center;verticalAlign=middle;fontFamily=Helvetica;fontSize=11;fontColor=default;endArrow=none;endFill=0;" edge="1" parent="1" source="48wu9TIcfDq3I_-A-M1b-18" target="48wu9TIcfDq3I_-A-M1b-18">
          <mxGeometry relative="1" as="geometry" />
        </mxCell>
        <mxCell id="48wu9TIcfDq3I_-A-M1b-23" value="Full stop" style="whiteSpace=wrap;html=1;rounded=0;shadow=1;labelBackgroundColor=none;strokeWidth=2;fontFamily=Verdana;fontSize=12;align=center;" vertex="1" parent="1">
          <mxGeometry x="-210" y="-151.37" width="80" height="40" as="geometry" />
        </mxCell>
        <mxCell id="48wu9TIcfDq3I_-A-M1b-24" value="" style="edgeStyle=none;shape=connector;rounded=0;orthogonalLoop=1;jettySize=auto;html=1;labelBackgroundColor=default;strokeColor=default;align=center;verticalAlign=middle;fontFamily=Helvetica;fontSize=11;fontColor=default;endArrow=none;endFill=0;entryX=0.5;entryY=1;entryDx=0;entryDy=0;exitX=0.5;exitY=0;exitDx=0;exitDy=0;" edge="1" parent="1" source="48wu9TIcfDq3I_-A-M1b-18" target="48wu9TIcfDq3I_-A-M1b-3">
          <mxGeometry relative="1" as="geometry">
            <mxPoint x="-185" y="-369.32" as="sourcePoint" />
            <mxPoint x="-154" y="-409.32" as="targetPoint" />
          </mxGeometry>
        </mxCell>
        <mxCell id="48wu9TIcfDq3I_-A-M1b-25" value="Repeat until successful&lt;br&gt;2 times" style="rhombus;whiteSpace=wrap;html=1;strokeWidth=2;shadow=1;" vertex="1" parent="1">
          <mxGeometry x="-110" y="-196.87" width="110" height="129.37" as="geometry" />
        </mxCell>
        <mxCell id="48wu9TIcfDq3I_-A-M1b-26" value="" style="edgeStyle=none;shape=connector;rounded=0;orthogonalLoop=1;jettySize=auto;html=1;labelBackgroundColor=default;strokeColor=default;align=center;verticalAlign=middle;fontFamily=Helvetica;fontSize=11;fontColor=default;endArrow=none;endFill=0;exitX=0.5;exitY=0;exitDx=0;exitDy=0;entryX=0.5;entryY=1;entryDx=0;entryDy=0;" edge="1" parent="1" source="48wu9TIcfDq3I_-A-M1b-21" target="48wu9TIcfDq3I_-A-M1b-25">
          <mxGeometry relative="1" as="geometry">
            <mxPoint x="20" y="-60.620000000000005" as="sourcePoint" />
            <mxPoint x="-40" y="-122.5" as="targetPoint" />
          </mxGeometry>
        </mxCell>
        <mxCell id="48wu9TIcfDq3I_-A-M1b-27" value="Recover speed" style="whiteSpace=wrap;html=1;rounded=0;shadow=1;labelBackgroundColor=none;strokeWidth=2;fontFamily=Verdana;fontSize=12;align=center;" vertex="1" parent="1">
          <mxGeometry x="30" y="-143.25" width="80" height="40" as="geometry" />
        </mxCell>
        <mxCell id="48wu9TIcfDq3I_-A-M1b-28" value="" style="edgeStyle=none;shape=connector;rounded=0;orthogonalLoop=1;jettySize=auto;html=1;labelBackgroundColor=default;strokeColor=default;align=center;verticalAlign=middle;fontFamily=Helvetica;fontSize=11;fontColor=default;endArrow=none;endFill=0;exitX=0.5;exitY=0;exitDx=0;exitDy=0;entryX=1;entryY=1;entryDx=0;entryDy=0;" edge="1" parent="1" source="48wu9TIcfDq3I_-A-M1b-27" target="48wu9TIcfDq3I_-A-M1b-18">
          <mxGeometry relative="1" as="geometry">
            <mxPoint x="-150" y="-171.5" as="sourcePoint" />
            <mxPoint x="-249" y="-219.5" as="targetPoint" />
          </mxGeometry>
        </mxCell>
        <mxCell id="48wu9TIcfDq3I_-A-M1b-29" value="Set failure state" style="whiteSpace=wrap;html=1;rounded=0;shadow=1;labelBackgroundColor=none;strokeWidth=2;fontFamily=Verdana;fontSize=12;align=center;fontColor=default;" vertex="1" parent="1">
          <mxGeometry x="255" y="-183.2500000000001" width="80" height="40" as="geometry" />
        </mxCell>
        <mxCell id="48wu9TIcfDq3I_-A-M1b-30" value="&lt;font style=&quot;font-size: 22px;&quot;&gt;→&lt;/font&gt;" style="whiteSpace=wrap;html=1;rounded=0;shadow=1;labelBackgroundColor=none;strokeWidth=2;fontFamily=Verdana;fontSize=12;align=center;" vertex="1" parent="1">
          <mxGeometry x="195" y="-272" width="65" height="30" as="geometry" />
        </mxCell>
        <mxCell id="48wu9TIcfDq3I_-A-M1b-31" value="Cancel task" style="whiteSpace=wrap;html=1;rounded=0;shadow=1;labelBackgroundColor=none;strokeWidth=2;fontFamily=Verdana;fontSize=12;align=center;fontColor=default;" vertex="1" parent="1">
          <mxGeometry x="155" y="-187" width="65" height="47" as="geometry" />
        </mxCell>
        <mxCell id="48wu9TIcfDq3I_-A-M1b-32" value="&lt;font style=&quot;font-size: 20px;&quot;&gt;?&lt;/font&gt;&lt;div&gt;&lt;br/&gt;&lt;/div&gt;" style="whiteSpace=wrap;html=1;rounded=0;shadow=1;labelBackgroundColor=none;strokeWidth=2;fontFamily=Verdana;fontSize=12;align=center;" vertex="1" parent="1">
          <mxGeometry x="685" y="-478.25" width="120" height="47" as="geometry" />
        </mxCell>
        <mxCell id="48wu9TIcfDq3I_-A-M1b-33" value="Is IMU working?" style="ellipse;whiteSpace=wrap;html=1;shadow=1;strokeWidth=2;" vertex="1" parent="1">
          <mxGeometry x="370" y="-298.56" width="110" height="49.5" as="geometry" />
        </mxCell>
        <mxCell id="48wu9TIcfDq3I_-A-M1b-34" style="edgeStyle=none;shape=connector;rounded=0;orthogonalLoop=1;jettySize=auto;html=1;exitX=1;exitY=0;exitDx=0;exitDy=0;entryX=0.25;entryY=1;entryDx=0;entryDy=0;labelBackgroundColor=default;strokeColor=default;align=center;verticalAlign=middle;fontFamily=Helvetica;fontSize=11;fontColor=default;endArrow=none;endFill=0;" edge="1" parent="1" source="48wu9TIcfDq3I_-A-M1b-33" target="48wu9TIcfDq3I_-A-M1b-32">
          <mxGeometry relative="1" as="geometry" />
        </mxCell>
        <mxCell id="48wu9TIcfDq3I_-A-M1b-35" value="" style="edgeStyle=none;shape=connector;rounded=0;orthogonalLoop=1;jettySize=auto;html=1;labelBackgroundColor=default;strokeColor=default;align=center;verticalAlign=middle;fontFamily=Helvetica;fontSize=11;fontColor=default;endArrow=none;endFill=0;entryX=0.75;entryY=1;entryDx=0;entryDy=0;exitX=0.5;exitY=0;exitDx=0;exitDy=0;" edge="1" parent="1" source="48wu9TIcfDq3I_-A-M1b-58" target="48wu9TIcfDq3I_-A-M1b-59">
          <mxGeometry relative="1" as="geometry" />
        </mxCell>
        <mxCell id="48wu9TIcfDq3I_-A-M1b-36" value="" style="edgeStyle=none;shape=connector;rounded=0;orthogonalLoop=1;jettySize=auto;html=1;labelBackgroundColor=default;strokeColor=default;align=center;verticalAlign=middle;fontFamily=Helvetica;fontSize=11;fontColor=default;endArrow=none;endFill=0;" edge="1" parent="1" source="48wu9TIcfDq3I_-A-M1b-37" target="48wu9TIcfDq3I_-A-M1b-32">
          <mxGeometry relative="1" as="geometry" />
        </mxCell>
        <mxCell id="48wu9TIcfDq3I_-A-M1b-37" value="&lt;font style=&quot;font-size: 22px;&quot;&gt;→&lt;/font&gt;" style="whiteSpace=wrap;html=1;rounded=0;shadow=1;labelBackgroundColor=none;strokeWidth=2;fontFamily=Verdana;fontSize=12;align=center;" vertex="1" parent="1">
          <mxGeometry x="600" y="-288.81" width="65" height="30" as="geometry" />
        </mxCell>
        <mxCell id="48wu9TIcfDq3I_-A-M1b-38" value="" style="rounded=0;orthogonalLoop=1;jettySize=auto;html=1;endArrow=none;endFill=0;exitX=0.5;exitY=0;exitDx=0;exitDy=0;" edge="1" parent="1" source="48wu9TIcfDq3I_-A-M1b-45" target="48wu9TIcfDq3I_-A-M1b-37">
          <mxGeometry relative="1" as="geometry">
            <mxPoint x="575" y="-206.31" as="sourcePoint" />
          </mxGeometry>
        </mxCell>
        <mxCell id="48wu9TIcfDq3I_-A-M1b-39" value="" style="edgeStyle=none;shape=connector;rounded=0;orthogonalLoop=1;jettySize=auto;html=1;labelBackgroundColor=default;strokeColor=default;align=center;verticalAlign=middle;fontFamily=Helvetica;fontSize=11;fontColor=default;endArrow=none;endFill=0;" edge="1" parent="1" source="48wu9TIcfDq3I_-A-M1b-40" target="48wu9TIcfDq3I_-A-M1b-37">
          <mxGeometry relative="1" as="geometry" />
        </mxCell>
        <mxCell id="48wu9TIcfDq3I_-A-M1b-40" value="Restart IMU" style="whiteSpace=wrap;html=1;rounded=0;shadow=1;labelBackgroundColor=none;strokeWidth=2;fontFamily=Verdana;fontSize=12;align=center;fontColor=default;" vertex="1" parent="1">
          <mxGeometry x="585" y="-223.31000000000012" width="80" height="40" as="geometry" />
        </mxCell>
        <mxCell id="48wu9TIcfDq3I_-A-M1b-41" value="" style="edgeStyle=none;shape=connector;rounded=0;orthogonalLoop=1;jettySize=auto;html=1;labelBackgroundColor=default;strokeColor=default;align=center;verticalAlign=middle;fontFamily=Helvetica;fontSize=11;fontColor=default;endArrow=none;endFill=0;exitX=0.5;exitY=0;exitDx=0;exitDy=0;" edge="1" parent="1" source="48wu9TIcfDq3I_-A-M1b-46" target="48wu9TIcfDq3I_-A-M1b-37">
          <mxGeometry relative="1" as="geometry">
            <mxPoint x="825" y="-286.31" as="sourcePoint" />
          </mxGeometry>
        </mxCell>
        <mxCell id="48wu9TIcfDq3I_-A-M1b-42" value="" style="edgeStyle=none;shape=connector;rounded=0;orthogonalLoop=1;jettySize=auto;html=1;labelBackgroundColor=default;strokeColor=default;align=center;verticalAlign=middle;fontFamily=Helvetica;fontSize=11;fontColor=default;endArrow=none;endFill=0;exitX=0.25;exitY=1;exitDx=0;exitDy=0;entryX=0.5;entryY=0;entryDx=0;entryDy=0;" edge="1" parent="1" source="48wu9TIcfDq3I_-A-M1b-59" target="48wu9TIcfDq3I_-A-M1b-60">
          <mxGeometry relative="1" as="geometry">
            <mxPoint x="1025" y="61.629999999999995" as="sourcePoint" />
          </mxGeometry>
        </mxCell>
        <mxCell id="48wu9TIcfDq3I_-A-M1b-43" value="" style="edgeStyle=none;shape=connector;rounded=0;orthogonalLoop=1;jettySize=auto;html=1;labelBackgroundColor=default;strokeColor=default;align=center;verticalAlign=middle;fontFamily=Helvetica;fontSize=11;fontColor=default;endArrow=none;endFill=0;entryX=0.75;entryY=1;entryDx=0;entryDy=0;exitX=0.5;exitY=0;exitDx=0;exitDy=0;" edge="1" parent="1" source="48wu9TIcfDq3I_-A-M1b-59" target="48wu9TIcfDq3I_-A-M1b-32">
          <mxGeometry relative="1" as="geometry">
            <mxPoint x="1025" y="-408.25" as="sourcePoint" />
          </mxGeometry>
        </mxCell>
        <mxCell id="48wu9TIcfDq3I_-A-M1b-44" style="edgeStyle=none;shape=connector;rounded=0;orthogonalLoop=1;jettySize=auto;html=1;exitX=0.5;exitY=1;exitDx=0;exitDy=0;labelBackgroundColor=default;strokeColor=default;align=center;verticalAlign=middle;fontFamily=Helvetica;fontSize=11;fontColor=default;endArrow=none;endFill=0;" edge="1" parent="1" source="48wu9TIcfDq3I_-A-M1b-37" target="48wu9TIcfDq3I_-A-M1b-37">
          <mxGeometry relative="1" as="geometry" />
        </mxCell>
        <mxCell id="48wu9TIcfDq3I_-A-M1b-45" value="Reduce speed" style="whiteSpace=wrap;html=1;rounded=0;shadow=1;labelBackgroundColor=none;strokeWidth=2;fontFamily=Verdana;fontSize=12;align=center;" vertex="1" parent="1">
          <mxGeometry x="495" y="-227.18" width="80" height="45.5" as="geometry" />
        </mxCell>
        <mxCell id="48wu9TIcfDq3I_-A-M1b-46" value="Recover speed" style="whiteSpace=wrap;html=1;rounded=0;shadow=1;labelBackgroundColor=none;strokeWidth=2;fontFamily=Verdana;fontSize=12;align=center;" vertex="1" parent="1">
          <mxGeometry x="675" y="-223.31" width="80" height="40" as="geometry" />
        </mxCell>
        <mxCell id="48wu9TIcfDq3I_-A-M1b-47" value="&lt;font style=&quot;font-size: 22px;&quot;&gt;→&lt;/font&gt;" style="whiteSpace=wrap;html=1;rounded=0;shadow=1;labelBackgroundColor=none;strokeWidth=2;fontFamily=Verdana;fontSize=12;align=center;" vertex="1" parent="1">
          <mxGeometry x="912.5" y="-292.62" width="65" height="30" as="geometry" />
        </mxCell>
        <mxCell id="48wu9TIcfDq3I_-A-M1b-48" value="" style="rounded=0;orthogonalLoop=1;jettySize=auto;html=1;endArrow=none;endFill=0;exitX=0.5;exitY=0;exitDx=0;exitDy=0;" edge="1" parent="1" source="48wu9TIcfDq3I_-A-M1b-52" target="48wu9TIcfDq3I_-A-M1b-47">
          <mxGeometry relative="1" as="geometry">
            <mxPoint x="880" y="-282.25" as="sourcePoint" />
          </mxGeometry>
        </mxCell>
        <mxCell id="48wu9TIcfDq3I_-A-M1b-49" value="" style="edgeStyle=none;shape=connector;rounded=0;orthogonalLoop=1;jettySize=auto;html=1;labelBackgroundColor=default;strokeColor=default;align=center;verticalAlign=middle;fontFamily=Helvetica;fontSize=11;fontColor=default;endArrow=none;endFill=0;exitX=0.5;exitY=0;exitDx=0;exitDy=0;" edge="1" parent="1" source="48wu9TIcfDq3I_-A-M1b-54" target="48wu9TIcfDq3I_-A-M1b-47">
          <mxGeometry relative="1" as="geometry">
            <mxPoint x="1100" y="-215.75" as="sourcePoint" />
          </mxGeometry>
        </mxCell>
        <mxCell id="48wu9TIcfDq3I_-A-M1b-50" value="Restart IMU" style="whiteSpace=wrap;html=1;rounded=0;shadow=1;labelBackgroundColor=none;strokeWidth=2;fontFamily=Verdana;fontSize=12;align=center;fontColor=default;" vertex="1" parent="1">
          <mxGeometry x="905" y="-75.75000000000011" width="80" height="40" as="geometry" />
        </mxCell>
        <mxCell id="48wu9TIcfDq3I_-A-M1b-51" style="edgeStyle=none;shape=connector;rounded=0;orthogonalLoop=1;jettySize=auto;html=1;exitX=0.5;exitY=1;exitDx=0;exitDy=0;labelBackgroundColor=default;strokeColor=default;align=center;verticalAlign=middle;fontFamily=Helvetica;fontSize=11;fontColor=default;endArrow=none;endFill=0;" edge="1" parent="1" source="48wu9TIcfDq3I_-A-M1b-47" target="48wu9TIcfDq3I_-A-M1b-47">
          <mxGeometry relative="1" as="geometry" />
        </mxCell>
        <mxCell id="48wu9TIcfDq3I_-A-M1b-52" value="Full stop" style="whiteSpace=wrap;html=1;rounded=0;shadow=1;labelBackgroundColor=none;strokeWidth=2;fontFamily=Verdana;fontSize=12;align=center;" vertex="1" parent="1">
          <mxGeometry x="790" y="-179.62" width="80" height="40" as="geometry" />
        </mxCell>
        <mxCell id="48wu9TIcfDq3I_-A-M1b-53" value="" style="edgeStyle=none;shape=connector;rounded=0;orthogonalLoop=1;jettySize=auto;html=1;labelBackgroundColor=default;strokeColor=default;align=center;verticalAlign=middle;fontFamily=Helvetica;fontSize=11;fontColor=default;endArrow=none;endFill=0;entryX=0.5;entryY=1;entryDx=0;entryDy=0;exitX=0.5;exitY=0;exitDx=0;exitDy=0;" edge="1" parent="1" source="48wu9TIcfDq3I_-A-M1b-47" target="48wu9TIcfDq3I_-A-M1b-32">
          <mxGeometry relative="1" as="geometry">
            <mxPoint x="815" y="-397.57" as="sourcePoint" />
            <mxPoint x="846" y="-437.57" as="targetPoint" />
          </mxGeometry>
        </mxCell>
        <mxCell id="48wu9TIcfDq3I_-A-M1b-54" value="Repeat until successful&lt;br&gt;2 times" style="rhombus;whiteSpace=wrap;html=1;strokeWidth=2;shadow=1;" vertex="1" parent="1">
          <mxGeometry x="890" y="-225.12" width="110" height="129.37" as="geometry" />
        </mxCell>
        <mxCell id="48wu9TIcfDq3I_-A-M1b-55" value="" style="edgeStyle=none;shape=connector;rounded=0;orthogonalLoop=1;jettySize=auto;html=1;labelBackgroundColor=default;strokeColor=default;align=center;verticalAlign=middle;fontFamily=Helvetica;fontSize=11;fontColor=default;endArrow=none;endFill=0;exitX=0.5;exitY=0;exitDx=0;exitDy=0;entryX=0.5;entryY=1;entryDx=0;entryDy=0;" edge="1" parent="1" source="48wu9TIcfDq3I_-A-M1b-50" target="48wu9TIcfDq3I_-A-M1b-54">
          <mxGeometry relative="1" as="geometry">
            <mxPoint x="1020" y="-88.87" as="sourcePoint" />
            <mxPoint x="960" y="-150.75" as="targetPoint" />
          </mxGeometry>
        </mxCell>
        <mxCell id="48wu9TIcfDq3I_-A-M1b-56" value="Recover speed" style="whiteSpace=wrap;html=1;rounded=0;shadow=1;labelBackgroundColor=none;strokeWidth=2;fontFamily=Verdana;fontSize=12;align=center;" vertex="1" parent="1">
          <mxGeometry x="1030" y="-171.5" width="80" height="40" as="geometry" />
        </mxCell>
        <mxCell id="48wu9TIcfDq3I_-A-M1b-57" value="" style="edgeStyle=none;shape=connector;rounded=0;orthogonalLoop=1;jettySize=auto;html=1;labelBackgroundColor=default;strokeColor=default;align=center;verticalAlign=middle;fontFamily=Helvetica;fontSize=11;fontColor=default;endArrow=none;endFill=0;exitX=0.5;exitY=0;exitDx=0;exitDy=0;entryX=1;entryY=1;entryDx=0;entryDy=0;" edge="1" parent="1" source="48wu9TIcfDq3I_-A-M1b-56" target="48wu9TIcfDq3I_-A-M1b-47">
          <mxGeometry relative="1" as="geometry">
            <mxPoint x="850" y="-199.75" as="sourcePoint" />
            <mxPoint x="751" y="-247.75" as="targetPoint" />
          </mxGeometry>
        </mxCell>
        <mxCell id="48wu9TIcfDq3I_-A-M1b-58" value="Set failure state" style="whiteSpace=wrap;html=1;rounded=0;shadow=1;labelBackgroundColor=none;strokeWidth=2;fontFamily=Verdana;fontSize=12;align=center;fontColor=default;" vertex="1" parent="1">
          <mxGeometry x="1255" y="-211.5000000000001" width="80" height="40" as="geometry" />
        </mxCell>
        <mxCell id="48wu9TIcfDq3I_-A-M1b-59" value="&lt;font style=&quot;font-size: 22px;&quot;&gt;→&lt;/font&gt;" style="whiteSpace=wrap;html=1;rounded=0;shadow=1;labelBackgroundColor=none;strokeWidth=2;fontFamily=Verdana;fontSize=12;align=center;" vertex="1" parent="1">
          <mxGeometry x="1195" y="-300.25" width="65" height="30" as="geometry" />
        </mxCell>
        <mxCell id="48wu9TIcfDq3I_-A-M1b-60" value="Cancel task" style="whiteSpace=wrap;html=1;rounded=0;shadow=1;labelBackgroundColor=none;strokeWidth=2;fontFamily=Verdana;fontSize=12;align=center;fontColor=default;" vertex="1" parent="1">
          <mxGeometry x="1155" y="-215.25" width="65" height="47" as="geometry" />
        </mxCell>
        <mxCell id="48wu9TIcfDq3I_-A-M1b-61" value="&lt;font style=&quot;font-size: 20px;&quot;&gt;?&lt;/font&gt;&lt;div&gt;&lt;br/&gt;&lt;/div&gt;" style="whiteSpace=wrap;html=1;rounded=0;shadow=1;labelBackgroundColor=none;strokeWidth=2;fontFamily=Verdana;fontSize=12;align=center;" vertex="1" parent="1">
          <mxGeometry x="1710" y="-487" width="120" height="47" as="geometry" />
        </mxCell>
        <mxCell id="48wu9TIcfDq3I_-A-M1b-62" value="Is odometry working?" style="ellipse;whiteSpace=wrap;html=1;shadow=1;strokeWidth=2;" vertex="1" parent="1">
          <mxGeometry x="1395" y="-307.31" width="110" height="49.5" as="geometry" />
        </mxCell>
        <mxCell id="48wu9TIcfDq3I_-A-M1b-63" style="edgeStyle=none;shape=connector;rounded=0;orthogonalLoop=1;jettySize=auto;html=1;exitX=1;exitY=0;exitDx=0;exitDy=0;entryX=0.25;entryY=1;entryDx=0;entryDy=0;labelBackgroundColor=default;strokeColor=default;align=center;verticalAlign=middle;fontFamily=Helvetica;fontSize=11;fontColor=default;endArrow=none;endFill=0;" edge="1" parent="1" source="48wu9TIcfDq3I_-A-M1b-62" target="48wu9TIcfDq3I_-A-M1b-61">
          <mxGeometry relative="1" as="geometry" />
        </mxCell>
        <mxCell id="48wu9TIcfDq3I_-A-M1b-64" value="" style="edgeStyle=none;shape=connector;rounded=0;orthogonalLoop=1;jettySize=auto;html=1;labelBackgroundColor=default;strokeColor=default;align=center;verticalAlign=middle;fontFamily=Helvetica;fontSize=11;fontColor=default;endArrow=none;endFill=0;entryX=0.75;entryY=1;entryDx=0;entryDy=0;exitX=0.5;exitY=0;exitDx=0;exitDy=0;" edge="1" parent="1" source="48wu9TIcfDq3I_-A-M1b-87" target="48wu9TIcfDq3I_-A-M1b-88">
          <mxGeometry relative="1" as="geometry" />
        </mxCell>
        <mxCell id="48wu9TIcfDq3I_-A-M1b-65" value="" style="edgeStyle=none;shape=connector;rounded=0;orthogonalLoop=1;jettySize=auto;html=1;labelBackgroundColor=default;strokeColor=default;align=center;verticalAlign=middle;fontFamily=Helvetica;fontSize=11;fontColor=default;endArrow=none;endFill=0;" edge="1" parent="1" source="48wu9TIcfDq3I_-A-M1b-66" target="48wu9TIcfDq3I_-A-M1b-61">
          <mxGeometry relative="1" as="geometry" />
        </mxCell>
        <mxCell id="48wu9TIcfDq3I_-A-M1b-66" value="&lt;font style=&quot;font-size: 22px;&quot;&gt;→&lt;/font&gt;" style="whiteSpace=wrap;html=1;rounded=0;shadow=1;labelBackgroundColor=none;strokeWidth=2;fontFamily=Verdana;fontSize=12;align=center;" vertex="1" parent="1">
          <mxGeometry x="1625" y="-297.56" width="65" height="30" as="geometry" />
        </mxCell>
        <mxCell id="48wu9TIcfDq3I_-A-M1b-67" value="" style="rounded=0;orthogonalLoop=1;jettySize=auto;html=1;endArrow=none;endFill=0;exitX=0.5;exitY=0;exitDx=0;exitDy=0;" edge="1" parent="1" source="48wu9TIcfDq3I_-A-M1b-74" target="48wu9TIcfDq3I_-A-M1b-66">
          <mxGeometry relative="1" as="geometry">
            <mxPoint x="1600" y="-215.06" as="sourcePoint" />
          </mxGeometry>
        </mxCell>
        <mxCell id="48wu9TIcfDq3I_-A-M1b-68" value="" style="edgeStyle=none;shape=connector;rounded=0;orthogonalLoop=1;jettySize=auto;html=1;labelBackgroundColor=default;strokeColor=default;align=center;verticalAlign=middle;fontFamily=Helvetica;fontSize=11;fontColor=default;endArrow=none;endFill=0;" edge="1" parent="1" source="48wu9TIcfDq3I_-A-M1b-69" target="48wu9TIcfDq3I_-A-M1b-66">
          <mxGeometry relative="1" as="geometry" />
        </mxCell>
        <mxCell id="48wu9TIcfDq3I_-A-M1b-69" value="Restart odometry" style="whiteSpace=wrap;html=1;rounded=0;shadow=1;labelBackgroundColor=none;strokeWidth=2;fontFamily=Verdana;fontSize=12;align=center;fontColor=default;" vertex="1" parent="1">
          <mxGeometry x="1610" y="-232.06000000000012" width="80" height="40" as="geometry" />
        </mxCell>
        <mxCell id="48wu9TIcfDq3I_-A-M1b-70" value="" style="edgeStyle=none;shape=connector;rounded=0;orthogonalLoop=1;jettySize=auto;html=1;labelBackgroundColor=default;strokeColor=default;align=center;verticalAlign=middle;fontFamily=Helvetica;fontSize=11;fontColor=default;endArrow=none;endFill=0;exitX=0.5;exitY=0;exitDx=0;exitDy=0;" edge="1" parent="1" source="48wu9TIcfDq3I_-A-M1b-75" target="48wu9TIcfDq3I_-A-M1b-66">
          <mxGeometry relative="1" as="geometry">
            <mxPoint x="1850" y="-295.06" as="sourcePoint" />
          </mxGeometry>
        </mxCell>
        <mxCell id="48wu9TIcfDq3I_-A-M1b-71" value="" style="edgeStyle=none;shape=connector;rounded=0;orthogonalLoop=1;jettySize=auto;html=1;labelBackgroundColor=default;strokeColor=default;align=center;verticalAlign=middle;fontFamily=Helvetica;fontSize=11;fontColor=default;endArrow=none;endFill=0;exitX=0.25;exitY=1;exitDx=0;exitDy=0;entryX=0.5;entryY=0;entryDx=0;entryDy=0;" edge="1" parent="1" source="48wu9TIcfDq3I_-A-M1b-88" target="48wu9TIcfDq3I_-A-M1b-89">
          <mxGeometry relative="1" as="geometry">
            <mxPoint x="2050" y="52.879999999999995" as="sourcePoint" />
          </mxGeometry>
        </mxCell>
        <mxCell id="48wu9TIcfDq3I_-A-M1b-72" value="" style="edgeStyle=none;shape=connector;rounded=0;orthogonalLoop=1;jettySize=auto;html=1;labelBackgroundColor=default;strokeColor=default;align=center;verticalAlign=middle;fontFamily=Helvetica;fontSize=11;fontColor=default;endArrow=none;endFill=0;entryX=0.75;entryY=1;entryDx=0;entryDy=0;exitX=0.5;exitY=0;exitDx=0;exitDy=0;" edge="1" parent="1" source="48wu9TIcfDq3I_-A-M1b-88" target="48wu9TIcfDq3I_-A-M1b-61">
          <mxGeometry relative="1" as="geometry">
            <mxPoint x="2050" y="-417" as="sourcePoint" />
          </mxGeometry>
        </mxCell>
        <mxCell id="48wu9TIcfDq3I_-A-M1b-73" style="edgeStyle=none;shape=connector;rounded=0;orthogonalLoop=1;jettySize=auto;html=1;exitX=0.5;exitY=1;exitDx=0;exitDy=0;labelBackgroundColor=default;strokeColor=default;align=center;verticalAlign=middle;fontFamily=Helvetica;fontSize=11;fontColor=default;endArrow=none;endFill=0;" edge="1" parent="1" source="48wu9TIcfDq3I_-A-M1b-66" target="48wu9TIcfDq3I_-A-M1b-66">
          <mxGeometry relative="1" as="geometry" />
        </mxCell>
        <mxCell id="48wu9TIcfDq3I_-A-M1b-74" value="Reduce speed" style="whiteSpace=wrap;html=1;rounded=0;shadow=1;labelBackgroundColor=none;strokeWidth=2;fontFamily=Verdana;fontSize=12;align=center;" vertex="1" parent="1">
          <mxGeometry x="1520" y="-235.93" width="80" height="45.5" as="geometry" />
        </mxCell>
        <mxCell id="48wu9TIcfDq3I_-A-M1b-75" value="Recover speed" style="whiteSpace=wrap;html=1;rounded=0;shadow=1;labelBackgroundColor=none;strokeWidth=2;fontFamily=Verdana;fontSize=12;align=center;" vertex="1" parent="1">
          <mxGeometry x="1700" y="-232.06" width="80" height="40" as="geometry" />
        </mxCell>
        <mxCell id="48wu9TIcfDq3I_-A-M1b-76" value="&lt;font style=&quot;font-size: 22px;&quot;&gt;→&lt;/font&gt;" style="whiteSpace=wrap;html=1;rounded=0;shadow=1;labelBackgroundColor=none;strokeWidth=2;fontFamily=Verdana;fontSize=12;align=center;" vertex="1" parent="1">
          <mxGeometry x="1937.5" y="-301.37" width="65" height="30" as="geometry" />
        </mxCell>
        <mxCell id="48wu9TIcfDq3I_-A-M1b-77" value="" style="rounded=0;orthogonalLoop=1;jettySize=auto;html=1;endArrow=none;endFill=0;exitX=0.5;exitY=0;exitDx=0;exitDy=0;" edge="1" parent="1" source="48wu9TIcfDq3I_-A-M1b-81" target="48wu9TIcfDq3I_-A-M1b-76">
          <mxGeometry relative="1" as="geometry">
            <mxPoint x="1905" y="-291" as="sourcePoint" />
          </mxGeometry>
        </mxCell>
        <mxCell id="48wu9TIcfDq3I_-A-M1b-78" value="" style="edgeStyle=none;shape=connector;rounded=0;orthogonalLoop=1;jettySize=auto;html=1;labelBackgroundColor=default;strokeColor=default;align=center;verticalAlign=middle;fontFamily=Helvetica;fontSize=11;fontColor=default;endArrow=none;endFill=0;exitX=0.5;exitY=0;exitDx=0;exitDy=0;" edge="1" parent="1" source="48wu9TIcfDq3I_-A-M1b-83" target="48wu9TIcfDq3I_-A-M1b-76">
          <mxGeometry relative="1" as="geometry">
            <mxPoint x="2125" y="-224.5" as="sourcePoint" />
          </mxGeometry>
        </mxCell>
        <mxCell id="48wu9TIcfDq3I_-A-M1b-79" value="Restart odometry" style="whiteSpace=wrap;html=1;rounded=0;shadow=1;labelBackgroundColor=none;strokeWidth=2;fontFamily=Verdana;fontSize=12;align=center;fontColor=default;" vertex="1" parent="1">
          <mxGeometry x="1930" y="-84.50000000000011" width="80" height="40" as="geometry" />
        </mxCell>
        <mxCell id="48wu9TIcfDq3I_-A-M1b-80" style="edgeStyle=none;shape=connector;rounded=0;orthogonalLoop=1;jettySize=auto;html=1;exitX=0.5;exitY=1;exitDx=0;exitDy=0;labelBackgroundColor=default;strokeColor=default;align=center;verticalAlign=middle;fontFamily=Helvetica;fontSize=11;fontColor=default;endArrow=none;endFill=0;" edge="1" parent="1" source="48wu9TIcfDq3I_-A-M1b-76" target="48wu9TIcfDq3I_-A-M1b-76">
          <mxGeometry relative="1" as="geometry" />
        </mxCell>
        <mxCell id="48wu9TIcfDq3I_-A-M1b-81" value="Full stop" style="whiteSpace=wrap;html=1;rounded=0;shadow=1;labelBackgroundColor=none;strokeWidth=2;fontFamily=Verdana;fontSize=12;align=center;" vertex="1" parent="1">
          <mxGeometry x="1815" y="-188.37" width="80" height="40" as="geometry" />
        </mxCell>
        <mxCell id="48wu9TIcfDq3I_-A-M1b-82" value="" style="edgeStyle=none;shape=connector;rounded=0;orthogonalLoop=1;jettySize=auto;html=1;labelBackgroundColor=default;strokeColor=default;align=center;verticalAlign=middle;fontFamily=Helvetica;fontSize=11;fontColor=default;endArrow=none;endFill=0;entryX=0.5;entryY=1;entryDx=0;entryDy=0;exitX=0.5;exitY=0;exitDx=0;exitDy=0;" edge="1" parent="1" source="48wu9TIcfDq3I_-A-M1b-76" target="48wu9TIcfDq3I_-A-M1b-61">
          <mxGeometry relative="1" as="geometry">
            <mxPoint x="1840" y="-406.32" as="sourcePoint" />
            <mxPoint x="1871" y="-446.32" as="targetPoint" />
          </mxGeometry>
        </mxCell>
        <mxCell id="48wu9TIcfDq3I_-A-M1b-83" value="Repeat until successful&lt;br&gt;2 times" style="rhombus;whiteSpace=wrap;html=1;strokeWidth=2;shadow=1;" vertex="1" parent="1">
          <mxGeometry x="1915" y="-233.87" width="110" height="129.37" as="geometry" />
        </mxCell>
        <mxCell id="48wu9TIcfDq3I_-A-M1b-84" value="" style="edgeStyle=none;shape=connector;rounded=0;orthogonalLoop=1;jettySize=auto;html=1;labelBackgroundColor=default;strokeColor=default;align=center;verticalAlign=middle;fontFamily=Helvetica;fontSize=11;fontColor=default;endArrow=none;endFill=0;exitX=0.5;exitY=0;exitDx=0;exitDy=0;entryX=0.5;entryY=1;entryDx=0;entryDy=0;" edge="1" parent="1" source="48wu9TIcfDq3I_-A-M1b-79" target="48wu9TIcfDq3I_-A-M1b-83">
          <mxGeometry relative="1" as="geometry">
            <mxPoint x="2045" y="-97.62" as="sourcePoint" />
            <mxPoint x="1985" y="-159.5" as="targetPoint" />
          </mxGeometry>
        </mxCell>
        <mxCell id="48wu9TIcfDq3I_-A-M1b-85" value="Recover speed" style="whiteSpace=wrap;html=1;rounded=0;shadow=1;labelBackgroundColor=none;strokeWidth=2;fontFamily=Verdana;fontSize=12;align=center;" vertex="1" parent="1">
          <mxGeometry x="2055" y="-180.25" width="80" height="40" as="geometry" />
        </mxCell>
        <mxCell id="48wu9TIcfDq3I_-A-M1b-86" value="" style="edgeStyle=none;shape=connector;rounded=0;orthogonalLoop=1;jettySize=auto;html=1;labelBackgroundColor=default;strokeColor=default;align=center;verticalAlign=middle;fontFamily=Helvetica;fontSize=11;fontColor=default;endArrow=none;endFill=0;exitX=0.5;exitY=0;exitDx=0;exitDy=0;entryX=1;entryY=1;entryDx=0;entryDy=0;" edge="1" parent="1" source="48wu9TIcfDq3I_-A-M1b-85" target="48wu9TIcfDq3I_-A-M1b-76">
          <mxGeometry relative="1" as="geometry">
            <mxPoint x="1875" y="-208.5" as="sourcePoint" />
            <mxPoint x="1776" y="-256.5" as="targetPoint" />
          </mxGeometry>
        </mxCell>
        <mxCell id="48wu9TIcfDq3I_-A-M1b-87" value="Set failure state" style="whiteSpace=wrap;html=1;rounded=0;shadow=1;labelBackgroundColor=none;strokeWidth=2;fontFamily=Verdana;fontSize=12;align=center;fontColor=default;" vertex="1" parent="1">
          <mxGeometry x="2280" y="-220.2500000000001" width="80" height="40" as="geometry" />
        </mxCell>
        <mxCell id="48wu9TIcfDq3I_-A-M1b-88" value="&lt;font style=&quot;font-size: 22px;&quot;&gt;→&lt;/font&gt;" style="whiteSpace=wrap;html=1;rounded=0;shadow=1;labelBackgroundColor=none;strokeWidth=2;fontFamily=Verdana;fontSize=12;align=center;" vertex="1" parent="1">
          <mxGeometry x="2220" y="-309" width="65" height="30" as="geometry" />
        </mxCell>
        <mxCell id="48wu9TIcfDq3I_-A-M1b-89" value="Cancel task" style="whiteSpace=wrap;html=1;rounded=0;shadow=1;labelBackgroundColor=none;strokeWidth=2;fontFamily=Verdana;fontSize=12;align=center;fontColor=default;" vertex="1" parent="1">
          <mxGeometry x="2180" y="-224" width="65" height="47" as="geometry" />
        </mxCell>
        <mxCell id="48wu9TIcfDq3I_-A-M1b-90" value="" style="rounded=0;html=1;labelBackgroundColor=none;startArrow=none;startFill=0;startSize=5;endArrow=none;endFill=0;endSize=5;jettySize=auto;orthogonalLoop=1;strokeWidth=1;fontFamily=Verdana;fontSize=12;exitX=0.5;exitY=0;exitDx=0;exitDy=0;entryX=0.5;entryY=1;entryDx=0;entryDy=0;" edge="1" parent="1" source="48wu9TIcfDq3I_-A-M1b-32" target="48wu9TIcfDq3I_-A-M1b-1">
          <mxGeometry x="-0.2168" y="-14" relative="1" as="geometry">
            <mxPoint as="offset" />
            <mxPoint x="745" y="-940" as="sourcePoint" />
            <mxPoint x="405" y="-670" as="targetPoint" />
          </mxGeometry>
        </mxCell>
        <mxCell id="48wu9TIcfDq3I_-A-M1b-91" value="" style="rounded=0;html=1;labelBackgroundColor=none;startArrow=none;startFill=0;startSize=5;endArrow=none;endFill=0;endSize=5;jettySize=auto;orthogonalLoop=1;strokeWidth=1;fontFamily=Verdana;fontSize=12;entryX=0.5;entryY=0;entryDx=0;entryDy=0;exitX=0.5;exitY=1;exitDx=0;exitDy=0;" edge="1" parent="1" source="48wu9TIcfDq3I_-A-M1b-1" target="48wu9TIcfDq3I_-A-M1b-61">
          <mxGeometry x="-0.2168" y="-14" relative="1" as="geometry">
            <mxPoint as="offset" />
            <mxPoint x="735" y="-950" as="sourcePoint" />
            <mxPoint x="-235" y="-430" as="targetPoint" />
          </mxGeometry>
        </mxCell>
        <mxCell id="48wu9TIcfDq3I_-A-M1b-92" value="Lidar subtree" style="text;html=1;align=center;verticalAlign=middle;whiteSpace=wrap;rounded=0;fontSize=16;fontStyle=1" vertex="1" parent="1">
          <mxGeometry x="-285" y="-547" width="60" height="30" as="geometry" />
        </mxCell>
        <mxCell id="48wu9TIcfDq3I_-A-M1b-93" value="IMU subtree" style="text;html=1;align=center;verticalAlign=middle;whiteSpace=wrap;rounded=0;fontSize=16;fontStyle=1" vertex="1" parent="1">
          <mxGeometry x="715" y="-580" width="60" height="30" as="geometry" />
        </mxCell>
        <mxCell id="48wu9TIcfDq3I_-A-M1b-94" value="Odometry subtree" style="text;html=1;align=center;verticalAlign=middle;whiteSpace=wrap;rounded=0;fontSize=16;fontStyle=1" vertex="1" parent="1">
          <mxGeometry x="1740" y="-575.37" width="60" height="30" as="geometry" />
        </mxCell>
        <mxCell id="48wu9TIcfDq3I_-A-M1b-96" value="" style="rounded=0;html=1;labelBackgroundColor=none;startArrow=none;startFill=0;startSize=5;endArrow=none;endFill=0;endSize=5;jettySize=auto;orthogonalLoop=1;strokeWidth=1;fontFamily=Verdana;fontSize=12;exitX=0.5;exitY=1;exitDx=0;exitDy=0;entryX=0.5;entryY=0;entryDx=0;entryDy=0;" edge="1" parent="1" source="48wu9TIcfDq3I_-A-M1b-1" target="UioLQ09sQyiLT7YCH2Jn-2">
          <mxGeometry x="-0.2168" y="-14" relative="1" as="geometry">
            <mxPoint as="offset" />
            <mxPoint x="1210" y="-1008.37" as="sourcePoint" />
            <mxPoint x="2710" y="-450" as="targetPoint" />
          </mxGeometry>
        </mxCell>
        <mxCell id="48wu9TIcfDq3I_-A-M1b-97" value="Battery subtree" style="text;html=1;align=center;verticalAlign=middle;whiteSpace=wrap;rounded=0;fontSize=16;fontStyle=1" vertex="1" parent="1">
          <mxGeometry x="2720" y="-469.75" width="60" height="30" as="geometry" />
        </mxCell>
        <mxCell id="4gNPXNyw9CEOI4Ep-7_u-2" value="&lt;font style=&quot;font-size: 20px;&quot;&gt;?&lt;/font&gt;&lt;div&gt;&lt;br/&gt;&lt;/div&gt;" style="whiteSpace=wrap;html=1;rounded=0;shadow=1;labelBackgroundColor=none;strokeWidth=2;fontFamily=Verdana;fontSize=12;align=center;" vertex="1" parent="1">
          <mxGeometry x="3400" y="-395.25" width="120" height="47" as="geometry" />
        </mxCell>
        <mxCell id="4gNPXNyw9CEOI4Ep-7_u-3" value="Is goal possible to achieve?" style="ellipse;whiteSpace=wrap;html=1;shadow=1;strokeWidth=2;" vertex="1" parent="1">
          <mxGeometry x="3395" y="-250.06" width="130" height="95" as="geometry" />
        </mxCell>
        <mxCell id="4gNPXNyw9CEOI4Ep-7_u-5" value="" style="edgeStyle=none;shape=connector;rounded=0;orthogonalLoop=1;jettySize=auto;html=1;labelBackgroundColor=default;strokeColor=default;align=center;verticalAlign=middle;fontFamily=Helvetica;fontSize=11;fontColor=default;endArrow=none;endFill=0;entryX=0.5;entryY=1;entryDx=0;entryDy=0;exitX=0.5;exitY=0;exitDx=0;exitDy=0;" edge="1" parent="1" source="4gNPXNyw9CEOI4Ep-7_u-6" target="4gNPXNyw9CEOI4Ep-7_u-2">
          <mxGeometry relative="1" as="geometry" />
        </mxCell>
        <mxCell id="4gNPXNyw9CEOI4Ep-7_u-6" value="&lt;font style=&quot;font-size: 22px;&quot;&gt;→&lt;/font&gt;" style="whiteSpace=wrap;html=1;rounded=0;shadow=1;labelBackgroundColor=none;strokeWidth=2;fontFamily=Verdana;fontSize=12;align=center;" vertex="1" parent="1">
          <mxGeometry x="3205" y="-235.93" width="112.5" height="50.31" as="geometry" />
        </mxCell>
        <mxCell id="4gNPXNyw9CEOI4Ep-7_u-7" value="" style="rounded=0;orthogonalLoop=1;jettySize=auto;html=1;endArrow=none;endFill=0;entryX=0.5;entryY=1;entryDx=0;entryDy=0;exitX=0.5;exitY=0;exitDx=0;exitDy=0;" edge="1" parent="1" source="4gNPXNyw9CEOI4Ep-7_u-18" target="4gNPXNyw9CEOI4Ep-7_u-6">
          <mxGeometry relative="1" as="geometry">
            <mxPoint x="3115" y="-168.62" as="sourcePoint" />
          </mxGeometry>
        </mxCell>
        <mxCell id="4gNPXNyw9CEOI4Ep-7_u-8" value="" style="edgeStyle=none;shape=connector;rounded=0;orthogonalLoop=1;jettySize=auto;html=1;labelBackgroundColor=default;strokeColor=default;align=center;verticalAlign=middle;fontFamily=Helvetica;fontSize=11;fontColor=default;endArrow=none;endFill=0;entryX=0.5;entryY=1;entryDx=0;entryDy=0;exitX=0.5;exitY=0;exitDx=0;exitDy=0;" edge="1" parent="1" source="4gNPXNyw9CEOI4Ep-7_u-9" target="4gNPXNyw9CEOI4Ep-7_u-6">
          <mxGeometry relative="1" as="geometry" />
        </mxCell>
        <mxCell id="4gNPXNyw9CEOI4Ep-7_u-9" value="Restart global planner" style="whiteSpace=wrap;html=1;rounded=0;shadow=1;labelBackgroundColor=none;strokeWidth=2;fontFamily=Verdana;fontSize=12;align=center;fontColor=default;" vertex="1" parent="1">
          <mxGeometry x="3270" y="-111.37000000000012" width="80" height="40" as="geometry" />
        </mxCell>
        <mxCell id="4gNPXNyw9CEOI4Ep-7_u-10" style="edgeStyle=none;shape=connector;rounded=0;orthogonalLoop=1;jettySize=auto;html=1;exitX=0.5;exitY=1;exitDx=0;exitDy=0;labelBackgroundColor=default;strokeColor=default;align=center;verticalAlign=middle;fontFamily=Helvetica;fontSize=11;fontColor=default;endArrow=none;endFill=0;" edge="1" parent="1" source="4gNPXNyw9CEOI4Ep-7_u-6" target="4gNPXNyw9CEOI4Ep-7_u-6">
          <mxGeometry relative="1" as="geometry" />
        </mxCell>
        <mxCell id="4gNPXNyw9CEOI4Ep-7_u-11" value="Full stop" style="whiteSpace=wrap;html=1;rounded=0;shadow=1;labelBackgroundColor=none;strokeWidth=2;fontFamily=Verdana;fontSize=12;align=center;" vertex="1" parent="1">
          <mxGeometry x="3510" y="-114.12" width="80" height="45.5" as="geometry" />
        </mxCell>
        <mxCell id="4gNPXNyw9CEOI4Ep-7_u-13" value="Global planner subtree" style="text;html=1;align=center;verticalAlign=middle;whiteSpace=wrap;rounded=0;fontSize=16;fontStyle=1" vertex="1" parent="1">
          <mxGeometry x="3430" y="-469.75" width="60" height="30" as="geometry" />
        </mxCell>
        <mxCell id="4gNPXNyw9CEOI4Ep-7_u-14" value="" style="rounded=0;html=1;labelBackgroundColor=none;startArrow=none;startFill=0;startSize=5;endArrow=none;endFill=0;endSize=5;jettySize=auto;orthogonalLoop=1;strokeWidth=1;fontFamily=Verdana;fontSize=12;entryX=0.5;entryY=0;entryDx=0;entryDy=0;exitX=0.5;exitY=1;exitDx=0;exitDy=0;" edge="1" parent="1" source="48wu9TIcfDq3I_-A-M1b-1" target="4gNPXNyw9CEOI4Ep-7_u-2">
          <mxGeometry x="-0.2168" y="-14" relative="1" as="geometry">
            <mxPoint as="offset" />
            <mxPoint x="1510" y="-1240" as="sourcePoint" />
            <mxPoint x="3460" y="-487" as="targetPoint" />
          </mxGeometry>
        </mxCell>
        <mxCell id="4gNPXNyw9CEOI4Ep-7_u-17" value="" style="edgeStyle=none;shape=connector;rounded=0;orthogonalLoop=1;jettySize=auto;html=1;labelBackgroundColor=default;strokeColor=default;align=center;verticalAlign=middle;fontFamily=Helvetica;fontSize=11;fontColor=default;endArrow=none;endFill=0;entryX=0.5;entryY=1;entryDx=0;entryDy=0;exitX=0.5;exitY=0;exitDx=0;exitDy=0;" edge="1" parent="1" source="4gNPXNyw9CEOI4Ep-7_u-3" target="4gNPXNyw9CEOI4Ep-7_u-2">
          <mxGeometry relative="1" as="geometry">
            <mxPoint x="3316" y="-267" as="sourcePoint" />
            <mxPoint x="3470" y="-338" as="targetPoint" />
          </mxGeometry>
        </mxCell>
        <mxCell id="4gNPXNyw9CEOI4Ep-7_u-18" value="Inverter" style="rhombus;whiteSpace=wrap;html=1;strokeWidth=2;shadow=1;" vertex="1" parent="1">
          <mxGeometry x="3135" y="-119.4" width="60" height="75.06" as="geometry" />
        </mxCell>
        <mxCell id="4gNPXNyw9CEOI4Ep-7_u-19" value="Is global planner working?" style="ellipse;whiteSpace=wrap;html=1;shadow=1;strokeWidth=2;" vertex="1" parent="1">
          <mxGeometry x="3110" y="5.630000000000003" width="110" height="70" as="geometry" />
        </mxCell>
        <mxCell id="4gNPXNyw9CEOI4Ep-7_u-20" value="" style="rounded=0;orthogonalLoop=1;jettySize=auto;html=1;endArrow=none;endFill=0;entryX=0.5;entryY=1;entryDx=0;entryDy=0;exitX=0.5;exitY=0;exitDx=0;exitDy=0;" edge="1" parent="1" source="4gNPXNyw9CEOI4Ep-7_u-19" target="4gNPXNyw9CEOI4Ep-7_u-18">
          <mxGeometry relative="1" as="geometry">
            <mxPoint x="3005" y="-6.119999999999997" as="sourcePoint" />
            <mxPoint x="3101" y="-72.12" as="targetPoint" />
          </mxGeometry>
        </mxCell>
        <mxCell id="4gNPXNyw9CEOI4Ep-7_u-22" value="" style="edgeStyle=none;shape=connector;rounded=0;orthogonalLoop=1;jettySize=auto;html=1;labelBackgroundColor=default;strokeColor=default;align=center;verticalAlign=middle;fontFamily=Helvetica;fontSize=11;fontColor=default;endArrow=none;endFill=0;entryX=0.5;entryY=1;entryDx=0;entryDy=0;exitX=0.5;exitY=0;exitDx=0;exitDy=0;" edge="1" parent="1" source="4gNPXNyw9CEOI4Ep-7_u-23" target="4gNPXNyw9CEOI4Ep-7_u-2">
          <mxGeometry relative="1" as="geometry">
            <mxPoint x="3650" y="-180" as="sourcePoint" />
            <mxPoint x="3470" y="-338" as="targetPoint" />
          </mxGeometry>
        </mxCell>
        <mxCell id="4gNPXNyw9CEOI4Ep-7_u-23" value="&lt;font style=&quot;font-size: 22px;&quot;&gt;→&lt;/font&gt;" style="whiteSpace=wrap;html=1;rounded=0;shadow=1;labelBackgroundColor=none;strokeWidth=2;fontFamily=Verdana;fontSize=12;align=center;" vertex="1" parent="1">
          <mxGeometry x="3592.5" y="-230.56" width="112.5" height="50.31" as="geometry" />
        </mxCell>
        <mxCell id="4gNPXNyw9CEOI4Ep-7_u-25" value="" style="edgeStyle=none;shape=connector;rounded=0;orthogonalLoop=1;jettySize=auto;html=1;labelBackgroundColor=default;strokeColor=default;align=center;verticalAlign=middle;fontFamily=Helvetica;fontSize=11;fontColor=default;endArrow=none;endFill=0;entryX=0.5;entryY=1;entryDx=0;entryDy=0;exitX=0.5;exitY=0;exitDx=0;exitDy=0;" edge="1" parent="1" source="4gNPXNyw9CEOI4Ep-7_u-11" target="4gNPXNyw9CEOI4Ep-7_u-23">
          <mxGeometry relative="1" as="geometry">
            <mxPoint x="3345" y="-235.5" as="sourcePoint" />
            <mxPoint x="3296" y="-310.5" as="targetPoint" />
          </mxGeometry>
        </mxCell>
        <mxCell id="4gNPXNyw9CEOI4Ep-7_u-27" value="" style="edgeStyle=none;shape=connector;rounded=0;orthogonalLoop=1;jettySize=auto;html=1;labelBackgroundColor=default;strokeColor=default;align=center;verticalAlign=middle;fontFamily=Helvetica;fontSize=11;fontColor=default;endArrow=none;endFill=0;entryX=0.5;entryY=1;entryDx=0;entryDy=0;exitX=0.5;exitY=0;exitDx=0;exitDy=0;" edge="1" parent="1" source="S_KV75JDZPlAMFvWFxqy-3" target="4gNPXNyw9CEOI4Ep-7_u-23">
          <mxGeometry relative="1" as="geometry">
            <mxPoint x="3915" y="-127.5" as="sourcePoint" />
            <mxPoint x="3659" y="-170.5" as="targetPoint" />
          </mxGeometry>
        </mxCell>
        <mxCell id="S_KV75JDZPlAMFvWFxqy-1" value="Cancel task" style="whiteSpace=wrap;html=1;rounded=0;shadow=1;labelBackgroundColor=none;strokeWidth=2;fontFamily=Verdana;fontSize=12;align=center;" vertex="1" parent="1">
          <mxGeometry x="3608.75" y="-114.12" width="80" height="45.5" as="geometry" />
        </mxCell>
        <mxCell id="S_KV75JDZPlAMFvWFxqy-2" value="" style="edgeStyle=none;shape=connector;rounded=0;orthogonalLoop=1;jettySize=auto;html=1;labelBackgroundColor=default;strokeColor=default;align=center;verticalAlign=middle;fontFamily=Helvetica;fontSize=11;fontColor=default;endArrow=none;endFill=0;entryX=0.5;entryY=1;entryDx=0;entryDy=0;exitX=0.5;exitY=0;exitDx=0;exitDy=0;" edge="1" parent="1" source="S_KV75JDZPlAMFvWFxqy-1" target="4gNPXNyw9CEOI4Ep-7_u-23">
          <mxGeometry relative="1" as="geometry">
            <mxPoint x="3590" y="-101" as="sourcePoint" />
            <mxPoint x="3659" y="-170" as="targetPoint" />
          </mxGeometry>
        </mxCell>
        <mxCell id="S_KV75JDZPlAMFvWFxqy-3" value="Set failure state" style="whiteSpace=wrap;html=1;rounded=0;shadow=1;labelBackgroundColor=none;strokeWidth=2;fontFamily=Verdana;fontSize=12;align=center;" vertex="1" parent="1">
          <mxGeometry x="3720" y="-114.12" width="80" height="45.5" as="geometry" />
        </mxCell>
        <mxCell id="9AxvPlQ-T_DmJaR9HOEs-1" value="&lt;font style=&quot;font-size: 20px;&quot;&gt;?&lt;/font&gt;&lt;div&gt;&lt;br/&gt;&lt;/div&gt;" style="whiteSpace=wrap;html=1;rounded=0;shadow=1;labelBackgroundColor=none;strokeWidth=2;fontFamily=Verdana;fontSize=12;align=center;" vertex="1" parent="1">
          <mxGeometry x="4200" y="-375.5" width="120" height="47" as="geometry" />
        </mxCell>
        <mxCell id="9AxvPlQ-T_DmJaR9HOEs-2" value="Is orientation not broken?" style="ellipse;whiteSpace=wrap;html=1;shadow=1;strokeWidth=2;" vertex="1" parent="1">
          <mxGeometry x="4690" y="350.99999999999994" width="110" height="74.37" as="geometry" />
        </mxCell>
        <mxCell id="9AxvPlQ-T_DmJaR9HOEs-3" value="" style="edgeStyle=none;shape=connector;rounded=0;orthogonalLoop=1;jettySize=auto;html=1;labelBackgroundColor=default;strokeColor=default;align=center;verticalAlign=middle;fontFamily=Helvetica;fontSize=11;fontColor=default;endArrow=none;endFill=0;entryX=0.5;entryY=1;entryDx=0;entryDy=0;exitX=0.5;exitY=0;exitDx=0;exitDy=0;" edge="1" parent="1" source="9AxvPlQ-T_DmJaR9HOEs-4" target="9AxvPlQ-T_DmJaR9HOEs-1">
          <mxGeometry relative="1" as="geometry" />
        </mxCell>
        <mxCell id="9AxvPlQ-T_DmJaR9HOEs-4" value="&lt;font style=&quot;font-size: 22px;&quot;&gt;→&lt;/font&gt;" style="whiteSpace=wrap;html=1;rounded=0;shadow=1;labelBackgroundColor=none;strokeWidth=2;fontFamily=Verdana;fontSize=12;align=center;" vertex="1" parent="1">
          <mxGeometry x="4370" y="-220.87" width="112.5" height="50.31" as="geometry" />
        </mxCell>
        <mxCell id="9AxvPlQ-T_DmJaR9HOEs-5" value="" style="rounded=0;orthogonalLoop=1;jettySize=auto;html=1;endArrow=none;endFill=0;entryX=0.5;entryY=1;entryDx=0;entryDy=0;exitX=0.5;exitY=0;exitDx=0;exitDy=0;" edge="1" parent="1" source="QztkROLiBsuZBcDPhcuY-2" target="9AxvPlQ-T_DmJaR9HOEs-4">
          <mxGeometry relative="1" as="geometry">
            <mxPoint x="4820" y="-80" as="sourcePoint" />
          </mxGeometry>
        </mxCell>
        <mxCell id="9AxvPlQ-T_DmJaR9HOEs-6" value="" style="edgeStyle=none;shape=connector;rounded=0;orthogonalLoop=1;jettySize=auto;html=1;labelBackgroundColor=default;strokeColor=default;align=center;verticalAlign=middle;fontFamily=Helvetica;fontSize=11;fontColor=default;endArrow=none;endFill=0;entryX=0.5;entryY=1;entryDx=0;entryDy=0;exitX=0.5;exitY=0;exitDx=0;exitDy=0;" edge="1" parent="1" source="9AxvPlQ-T_DmJaR9HOEs-7" target="9AxvPlQ-T_DmJaR9HOEs-4">
          <mxGeometry relative="1" as="geometry" />
        </mxCell>
        <mxCell id="9AxvPlQ-T_DmJaR9HOEs-7" value="Cancel task&lt;div&gt;(for recalculating plan)&lt;/div&gt;" style="whiteSpace=wrap;html=1;rounded=0;shadow=1;labelBackgroundColor=none;strokeWidth=2;fontFamily=Verdana;fontSize=12;align=center;fontColor=default;" vertex="1" parent="1">
          <mxGeometry x="4130" y="49.99999999999999" width="110" height="66.93" as="geometry" />
        </mxCell>
        <mxCell id="9AxvPlQ-T_DmJaR9HOEs-8" style="edgeStyle=none;shape=connector;rounded=0;orthogonalLoop=1;jettySize=auto;html=1;exitX=0.5;exitY=1;exitDx=0;exitDy=0;labelBackgroundColor=default;strokeColor=default;align=center;verticalAlign=middle;fontFamily=Helvetica;fontSize=11;fontColor=default;endArrow=none;endFill=0;" edge="1" parent="1" source="9AxvPlQ-T_DmJaR9HOEs-4" target="9AxvPlQ-T_DmJaR9HOEs-4">
          <mxGeometry relative="1" as="geometry" />
        </mxCell>
        <mxCell id="9AxvPlQ-T_DmJaR9HOEs-10" value="Collision subtree" style="text;html=1;align=center;verticalAlign=middle;whiteSpace=wrap;rounded=0;fontSize=16;fontStyle=1" vertex="1" parent="1">
          <mxGeometry x="4230" y="-450" width="60" height="30" as="geometry" />
        </mxCell>
        <mxCell id="9AxvPlQ-T_DmJaR9HOEs-16" value="&lt;font style=&quot;font-size: 22px;&quot;&gt;→&lt;/font&gt;" style="whiteSpace=wrap;html=1;rounded=0;shadow=1;labelBackgroundColor=none;strokeWidth=2;fontFamily=Verdana;fontSize=12;align=center;" vertex="1" parent="1">
          <mxGeometry x="4192.5" y="212.07" width="112.5" height="50.31" as="geometry" />
        </mxCell>
        <mxCell id="9AxvPlQ-T_DmJaR9HOEs-17" value="" style="edgeStyle=none;shape=connector;rounded=0;orthogonalLoop=1;jettySize=auto;html=1;labelBackgroundColor=default;strokeColor=default;align=center;verticalAlign=middle;fontFamily=Helvetica;fontSize=11;fontColor=default;endArrow=none;endFill=0;entryX=0.5;entryY=1;entryDx=0;entryDy=0;exitX=0.445;exitY=0.027;exitDx=0;exitDy=0;exitPerimeter=0;" edge="1" parent="1" source="9AxvPlQ-T_DmJaR9HOEs-38" target="9AxvPlQ-T_DmJaR9HOEs-16">
          <mxGeometry relative="1" as="geometry">
            <mxPoint x="4180" y="328.04" as="sourcePoint" />
            <mxPoint x="3896" y="132.13" as="targetPoint" />
          </mxGeometry>
        </mxCell>
        <mxCell id="9AxvPlQ-T_DmJaR9HOEs-19" value="Reset occupancy map" style="whiteSpace=wrap;html=1;rounded=0;shadow=1;labelBackgroundColor=none;strokeWidth=2;fontFamily=Verdana;fontSize=12;align=center;" vertex="1" parent="1">
          <mxGeometry x="4270" y="317.60999999999996" width="80" height="45.5" as="geometry" />
        </mxCell>
        <mxCell id="9AxvPlQ-T_DmJaR9HOEs-20" value="" style="edgeStyle=none;shape=connector;rounded=0;orthogonalLoop=1;jettySize=auto;html=1;labelBackgroundColor=default;strokeColor=default;align=center;verticalAlign=middle;fontFamily=Helvetica;fontSize=11;fontColor=default;endArrow=none;endFill=0;entryX=0.5;entryY=1;entryDx=0;entryDy=0;exitX=0.5;exitY=0;exitDx=0;exitDy=0;" edge="1" parent="1" source="9AxvPlQ-T_DmJaR9HOEs-19" target="9AxvPlQ-T_DmJaR9HOEs-16">
          <mxGeometry relative="1" as="geometry">
            <mxPoint x="4190" y="341.62999999999994" as="sourcePoint" />
            <mxPoint x="4259" y="272.62999999999994" as="targetPoint" />
          </mxGeometry>
        </mxCell>
        <mxCell id="9AxvPlQ-T_DmJaR9HOEs-22" value="Is robot not in collision?" style="ellipse;whiteSpace=wrap;html=1;shadow=1;strokeWidth=2;" vertex="1" parent="1">
          <mxGeometry x="4030" y="-220.87000000000006" width="110" height="70" as="geometry" />
        </mxCell>
        <mxCell id="9AxvPlQ-T_DmJaR9HOEs-23" value="" style="edgeStyle=none;shape=connector;rounded=0;orthogonalLoop=1;jettySize=auto;html=1;labelBackgroundColor=default;strokeColor=default;align=center;verticalAlign=middle;fontFamily=Helvetica;fontSize=11;fontColor=default;endArrow=none;endFill=0;entryX=0.5;entryY=1;entryDx=0;entryDy=0;exitX=0.5;exitY=0;exitDx=0;exitDy=0;" edge="1" parent="1" source="9AxvPlQ-T_DmJaR9HOEs-22" target="9AxvPlQ-T_DmJaR9HOEs-1">
          <mxGeometry relative="1" as="geometry">
            <mxPoint x="4036" y="-259.5" as="sourcePoint" />
            <mxPoint x="3920" y="-375.5" as="targetPoint" />
          </mxGeometry>
        </mxCell>
        <mxCell id="9AxvPlQ-T_DmJaR9HOEs-24" value="Full stop" style="whiteSpace=wrap;html=1;rounded=0;shadow=1;labelBackgroundColor=none;strokeWidth=2;fontFamily=Verdana;fontSize=12;align=center;" vertex="1" parent="1">
          <mxGeometry x="3990" y="65.96000000000002" width="80" height="45.5" as="geometry" />
        </mxCell>
        <mxCell id="9AxvPlQ-T_DmJaR9HOEs-25" value="" style="rounded=0;orthogonalLoop=1;jettySize=auto;html=1;endArrow=none;endFill=0;entryX=0.5;entryY=1;entryDx=0;entryDy=0;exitX=0.5;exitY=0;exitDx=0;exitDy=0;" edge="1" parent="1" source="9AxvPlQ-T_DmJaR9HOEs-24" target="9AxvPlQ-T_DmJaR9HOEs-4">
          <mxGeometry relative="1" as="geometry">
            <mxPoint x="4460" y="22.689999999999998" as="sourcePoint" />
            <mxPoint x="4386" y="-152.31" as="targetPoint" />
          </mxGeometry>
        </mxCell>
        <mxCell id="9AxvPlQ-T_DmJaR9HOEs-26" value="&lt;font style=&quot;font-size: 20px;&quot;&gt;?&lt;/font&gt;&lt;div&gt;&lt;br/&gt;&lt;/div&gt;" style="whiteSpace=wrap;html=1;rounded=0;shadow=1;labelBackgroundColor=none;strokeWidth=2;fontFamily=Verdana;fontSize=12;align=center;" vertex="1" parent="1">
          <mxGeometry x="4322.5" y="69.06" width="120" height="47" as="geometry" />
        </mxCell>
        <mxCell id="9AxvPlQ-T_DmJaR9HOEs-28" value="" style="rounded=0;orthogonalLoop=1;jettySize=auto;html=1;endArrow=none;endFill=0;entryX=0.5;entryY=1;entryDx=0;entryDy=0;exitX=0.5;exitY=0;exitDx=0;exitDy=0;" edge="1" parent="1" source="9AxvPlQ-T_DmJaR9HOEs-26" target="9AxvPlQ-T_DmJaR9HOEs-4">
          <mxGeometry relative="1" as="geometry">
            <mxPoint x="4600" y="-133.37" as="sourcePoint" />
            <mxPoint x="4471" y="-223.37" as="targetPoint" />
          </mxGeometry>
        </mxCell>
        <mxCell id="9AxvPlQ-T_DmJaR9HOEs-29" value="Update map after collision" style="whiteSpace=wrap;html=1;rounded=0;shadow=1;labelBackgroundColor=none;strokeWidth=2;fontFamily=Verdana;fontSize=12;align=center;" vertex="1" parent="1">
          <mxGeometry x="4380" y="328.50999999999993" width="80" height="45.5" as="geometry" />
        </mxCell>
        <mxCell id="9AxvPlQ-T_DmJaR9HOEs-30" value="&lt;font style=&quot;font-size: 22px;&quot;&gt;→&lt;/font&gt;" style="whiteSpace=wrap;html=1;rounded=0;shadow=1;labelBackgroundColor=none;strokeWidth=2;fontFamily=Verdana;fontSize=12;align=center;" vertex="1" parent="1">
          <mxGeometry x="4462.5" y="212.07" width="112.5" height="50.31" as="geometry" />
        </mxCell>
        <mxCell id="9AxvPlQ-T_DmJaR9HOEs-31" value="" style="edgeStyle=none;shape=connector;rounded=0;orthogonalLoop=1;jettySize=auto;html=1;labelBackgroundColor=default;strokeColor=default;align=center;verticalAlign=middle;fontFamily=Helvetica;fontSize=11;fontColor=default;endArrow=none;endFill=0;entryX=0.5;entryY=1;entryDx=0;entryDy=0;exitX=0.5;exitY=0;exitDx=0;exitDy=0;" edge="1" parent="1" source="9AxvPlQ-T_DmJaR9HOEs-29" target="9AxvPlQ-T_DmJaR9HOEs-30">
          <mxGeometry relative="1" as="geometry">
            <mxPoint x="4215" y="207.13" as="sourcePoint" />
            <mxPoint x="4166" y="132.13" as="targetPoint" />
          </mxGeometry>
        </mxCell>
        <mxCell id="9AxvPlQ-T_DmJaR9HOEs-32" value="" style="edgeStyle=none;shape=connector;rounded=0;orthogonalLoop=1;jettySize=auto;html=1;labelBackgroundColor=default;strokeColor=default;align=center;verticalAlign=middle;fontFamily=Helvetica;fontSize=11;fontColor=default;endArrow=none;endFill=0;entryX=0.5;entryY=1;entryDx=0;entryDy=0;exitX=0.5;exitY=0;exitDx=0;exitDy=0;" edge="1" parent="1" source="9AxvPlQ-T_DmJaR9HOEs-35" target="9AxvPlQ-T_DmJaR9HOEs-30">
          <mxGeometry relative="1" as="geometry">
            <mxPoint x="4610" y="348.93" as="sourcePoint" />
            <mxPoint x="4529" y="272.12999999999994" as="targetPoint" />
          </mxGeometry>
        </mxCell>
        <mxCell id="9AxvPlQ-T_DmJaR9HOEs-33" value="Save updated map" style="whiteSpace=wrap;html=1;rounded=0;shadow=1;labelBackgroundColor=none;strokeWidth=2;fontFamily=Verdana;fontSize=12;align=center;" vertex="1" parent="1">
          <mxGeometry x="4478.75" y="328.50999999999993" width="80" height="45.5" as="geometry" />
        </mxCell>
        <mxCell id="9AxvPlQ-T_DmJaR9HOEs-34" value="" style="edgeStyle=none;shape=connector;rounded=0;orthogonalLoop=1;jettySize=auto;html=1;labelBackgroundColor=default;strokeColor=default;align=center;verticalAlign=middle;fontFamily=Helvetica;fontSize=11;fontColor=default;endArrow=none;endFill=0;entryX=0.5;entryY=1;entryDx=0;entryDy=0;exitX=0.5;exitY=0;exitDx=0;exitDy=0;" edge="1" parent="1" source="9AxvPlQ-T_DmJaR9HOEs-33" target="9AxvPlQ-T_DmJaR9HOEs-30">
          <mxGeometry relative="1" as="geometry">
            <mxPoint x="4460" y="341.62999999999994" as="sourcePoint" />
            <mxPoint x="4529" y="272.62999999999994" as="targetPoint" />
          </mxGeometry>
        </mxCell>
        <mxCell id="9AxvPlQ-T_DmJaR9HOEs-35" value="Load new map" style="whiteSpace=wrap;html=1;rounded=0;shadow=1;labelBackgroundColor=none;strokeWidth=2;fontFamily=Verdana;fontSize=12;align=center;" vertex="1" parent="1">
          <mxGeometry x="4575" y="328.50999999999993" width="80" height="45.5" as="geometry" />
        </mxCell>
        <mxCell id="9AxvPlQ-T_DmJaR9HOEs-36" value="" style="rounded=0;orthogonalLoop=1;jettySize=auto;html=1;endArrow=none;endFill=0;entryX=0.5;entryY=0;entryDx=0;entryDy=0;exitX=0.5;exitY=1;exitDx=0;exitDy=0;" edge="1" parent="1" source="9AxvPlQ-T_DmJaR9HOEs-26" target="9AxvPlQ-T_DmJaR9HOEs-16">
          <mxGeometry relative="1" as="geometry">
            <mxPoint x="4238" y="325.61999999999995" as="sourcePoint" />
            <mxPoint x="4040" y="445.61999999999995" as="targetPoint" />
          </mxGeometry>
        </mxCell>
        <mxCell id="9AxvPlQ-T_DmJaR9HOEs-37" value="" style="rounded=0;orthogonalLoop=1;jettySize=auto;html=1;endArrow=none;endFill=0;entryX=0.5;entryY=1;entryDx=0;entryDy=0;exitX=0.5;exitY=0;exitDx=0;exitDy=0;" edge="1" parent="1" source="9AxvPlQ-T_DmJaR9HOEs-30" target="9AxvPlQ-T_DmJaR9HOEs-26">
          <mxGeometry relative="1" as="geometry">
            <mxPoint x="4248" y="335.61999999999995" as="sourcePoint" />
            <mxPoint x="4050" y="455.61999999999995" as="targetPoint" />
          </mxGeometry>
        </mxCell>
        <mxCell id="9AxvPlQ-T_DmJaR9HOEs-38" value="Is robot using SLAM?" style="ellipse;whiteSpace=wrap;html=1;shadow=1;strokeWidth=2;" vertex="1" parent="1">
          <mxGeometry x="4130" y="303.18" width="110" height="74.37" as="geometry" />
        </mxCell>
        <mxCell id="9AxvPlQ-T_DmJaR9HOEs-39" value="" style="rounded=0;html=1;labelBackgroundColor=none;startArrow=none;startFill=0;startSize=5;endArrow=none;endFill=0;endSize=5;jettySize=auto;orthogonalLoop=1;strokeWidth=1;fontFamily=Verdana;fontSize=12;exitX=0.5;exitY=1;exitDx=0;exitDy=0;entryX=0.5;entryY=0;entryDx=0;entryDy=0;" edge="1" parent="1" source="48wu9TIcfDq3I_-A-M1b-1" target="9AxvPlQ-T_DmJaR9HOEs-1">
          <mxGeometry x="-0.2168" y="-14" relative="1" as="geometry">
            <mxPoint as="offset" />
            <mxPoint x="2130" y="-1440.37" as="sourcePoint" />
            <mxPoint x="4680" y="-550" as="targetPoint" />
          </mxGeometry>
        </mxCell>
        <mxCell id="9AxvPlQ-T_DmJaR9HOEs-41" value="" style="rounded=0;orthogonalLoop=1;jettySize=auto;html=1;endArrow=none;endFill=0;entryX=0.5;entryY=1;entryDx=0;entryDy=0;exitX=0.5;exitY=0;exitDx=0;exitDy=0;" edge="1" parent="1" source="9AxvPlQ-T_DmJaR9HOEs-42" target="9AxvPlQ-T_DmJaR9HOEs-4">
          <mxGeometry relative="1" as="geometry">
            <mxPoint x="5380" y="-73.31" as="sourcePoint" />
            <mxPoint x="4870" y="-15.25" as="targetPoint" />
          </mxGeometry>
        </mxCell>
        <mxCell id="9AxvPlQ-T_DmJaR9HOEs-42" value="&lt;font style=&quot;font-size: 22px;&quot;&gt;→&lt;/font&gt;" style="whiteSpace=wrap;html=1;rounded=0;shadow=1;labelBackgroundColor=none;strokeWidth=2;fontFamily=Verdana;fontSize=12;align=center;" vertex="1" parent="1">
          <mxGeometry x="5203.75" y="83.97" width="112.5" height="50.31" as="geometry" />
        </mxCell>
        <mxCell id="9AxvPlQ-T_DmJaR9HOEs-43" value="&lt;font style=&quot;font-size: 20px;&quot;&gt;?&lt;/font&gt;&lt;div&gt;&lt;br/&gt;&lt;/div&gt;" style="whiteSpace=wrap;html=1;rounded=0;shadow=1;labelBackgroundColor=none;strokeWidth=2;fontFamily=Verdana;fontSize=12;align=center;" vertex="1" parent="1">
          <mxGeometry x="5430" y="253.45999999999995" width="120" height="47" as="geometry" />
        </mxCell>
        <mxCell id="9AxvPlQ-T_DmJaR9HOEs-44" value="" style="rounded=0;orthogonalLoop=1;jettySize=auto;html=1;endArrow=none;endFill=0;entryX=0.5;entryY=1;entryDx=0;entryDy=0;exitX=0.5;exitY=0;exitDx=0;exitDy=0;" edge="1" parent="1" source="9AxvPlQ-T_DmJaR9HOEs-43" target="9AxvPlQ-T_DmJaR9HOEs-42">
          <mxGeometry relative="1" as="geometry">
            <mxPoint x="5686" y="175.44999999999996" as="sourcePoint" />
            <mxPoint x="5606.25" y="219.73000000000005" as="targetPoint" />
          </mxGeometry>
        </mxCell>
        <mxCell id="9AxvPlQ-T_DmJaR9HOEs-45" value="Is robot not in collision?" style="ellipse;whiteSpace=wrap;html=1;shadow=1;strokeWidth=2;" vertex="1" parent="1">
          <mxGeometry x="5380" y="365.49999999999994" width="110" height="70" as="geometry" />
        </mxCell>
        <mxCell id="9AxvPlQ-T_DmJaR9HOEs-46" value="Failure state" style="whiteSpace=wrap;html=1;rounded=0;shadow=1;labelBackgroundColor=none;strokeWidth=2;fontFamily=Verdana;fontSize=12;align=center;" vertex="1" parent="1">
          <mxGeometry x="5520" y="377.75000000000006" width="80" height="45.5" as="geometry" />
        </mxCell>
        <mxCell id="9AxvPlQ-T_DmJaR9HOEs-47" value="" style="rounded=0;orthogonalLoop=1;jettySize=auto;html=1;endArrow=none;endFill=0;entryX=0.5;entryY=1;entryDx=0;entryDy=0;exitX=0.5;exitY=0;exitDx=0;exitDy=0;" edge="1" parent="1" source="9AxvPlQ-T_DmJaR9HOEs-46" target="9AxvPlQ-T_DmJaR9HOEs-43">
          <mxGeometry relative="1" as="geometry">
            <mxPoint x="5229" y="404.95" as="sourcePoint" />
            <mxPoint x="5054" y="283.95" as="targetPoint" />
          </mxGeometry>
        </mxCell>
        <mxCell id="9AxvPlQ-T_DmJaR9HOEs-48" value="" style="rounded=0;orthogonalLoop=1;jettySize=auto;html=1;endArrow=none;endFill=0;entryX=0.5;entryY=1;entryDx=0;entryDy=0;exitX=0.5;exitY=0;exitDx=0;exitDy=0;" edge="1" parent="1" source="9AxvPlQ-T_DmJaR9HOEs-45" target="9AxvPlQ-T_DmJaR9HOEs-43">
          <mxGeometry relative="1" as="geometry">
            <mxPoint x="5239" y="414.95" as="sourcePoint" />
            <mxPoint x="5064" y="293.95" as="targetPoint" />
          </mxGeometry>
        </mxCell>
        <mxCell id="9AxvPlQ-T_DmJaR9HOEs-49" value="Publish last goal" style="whiteSpace=wrap;html=1;rounded=0;shadow=1;labelBackgroundColor=none;strokeWidth=2;fontFamily=Verdana;fontSize=12;align=center;" vertex="1" parent="1">
          <mxGeometry x="5580" y="253.46" width="100" height="51.77" as="geometry" />
        </mxCell>
        <mxCell id="9AxvPlQ-T_DmJaR9HOEs-50" value="" style="rounded=0;orthogonalLoop=1;jettySize=auto;html=1;endArrow=none;endFill=0;exitX=0.5;exitY=0;exitDx=0;exitDy=0;entryX=0.5;entryY=1;entryDx=0;entryDy=0;" edge="1" parent="1" source="9AxvPlQ-T_DmJaR9HOEs-49" target="9AxvPlQ-T_DmJaR9HOEs-42">
          <mxGeometry relative="1" as="geometry">
            <mxPoint x="5590" y="263.45" as="sourcePoint" />
            <mxPoint x="5560" y="150" as="targetPoint" />
          </mxGeometry>
        </mxCell>
        <mxCell id="QztkROLiBsuZBcDPhcuY-2" value="Keep running until failure" style="rhombus;whiteSpace=wrap;html=1;strokeWidth=2;shadow=1;" vertex="1" parent="1">
          <mxGeometry x="4700" y="11.889999999999986" width="90" height="143.15" as="geometry" />
        </mxCell>
        <mxCell id="QztkROLiBsuZBcDPhcuY-3" value="" style="rounded=0;orthogonalLoop=1;jettySize=auto;html=1;endArrow=none;endFill=0;exitX=0.5;exitY=0;exitDx=0;exitDy=0;entryX=0.5;entryY=1;entryDx=0;entryDy=0;" edge="1" parent="1" source="9AxvPlQ-T_DmJaR9HOEs-2" target="yQ7NAzXgi_w1m3QNSc_w-1">
          <mxGeometry relative="1" as="geometry">
            <mxPoint x="4875" y="71.8" as="sourcePoint" />
            <mxPoint x="4730" y="340" as="targetPoint" />
          </mxGeometry>
        </mxCell>
        <mxCell id="QztkROLiBsuZBcDPhcuY-4" value="LIDAR subtree" style="whiteSpace=wrap;html=1;" vertex="1" parent="1">
          <mxGeometry x="4890" y="246.76" width="120" height="60" as="geometry" />
        </mxCell>
        <mxCell id="QztkROLiBsuZBcDPhcuY-5" value="IMU subtree" style="whiteSpace=wrap;html=1;" vertex="1" parent="1">
          <mxGeometry x="5020" y="245.23" width="120" height="60" as="geometry" />
        </mxCell>
        <mxCell id="QztkROLiBsuZBcDPhcuY-6" value="Odometry subtree" style="whiteSpace=wrap;html=1;" vertex="1" parent="1">
          <mxGeometry x="5150" y="245.23" width="120" height="60" as="geometry" />
        </mxCell>
        <mxCell id="QztkROLiBsuZBcDPhcuY-7" value="" style="rounded=0;orthogonalLoop=1;jettySize=auto;html=1;endArrow=none;endFill=0;entryX=0.5;entryY=1;entryDx=0;entryDy=0;exitX=0.546;exitY=0.018;exitDx=0;exitDy=0;exitPerimeter=0;" edge="1" parent="1" source="QztkROLiBsuZBcDPhcuY-4" target="9AxvPlQ-T_DmJaR9HOEs-42">
          <mxGeometry relative="1" as="geometry">
            <mxPoint x="4868.75" y="329.57" as="sourcePoint" />
            <mxPoint x="4868.75" y="253.57" as="targetPoint" />
          </mxGeometry>
        </mxCell>
        <mxCell id="QztkROLiBsuZBcDPhcuY-8" value="" style="rounded=0;orthogonalLoop=1;jettySize=auto;html=1;endArrow=none;endFill=0;entryX=0.5;entryY=1;entryDx=0;entryDy=0;exitX=0.5;exitY=0;exitDx=0;exitDy=0;" edge="1" parent="1" source="QztkROLiBsuZBcDPhcuY-6" target="9AxvPlQ-T_DmJaR9HOEs-42">
          <mxGeometry relative="1" as="geometry">
            <mxPoint x="5119.75" y="223.57" as="sourcePoint" />
            <mxPoint x="5269.75" y="144.57" as="targetPoint" />
          </mxGeometry>
        </mxCell>
        <mxCell id="QztkROLiBsuZBcDPhcuY-9" value="" style="rounded=0;orthogonalLoop=1;jettySize=auto;html=1;endArrow=none;endFill=0;entryX=0.5;entryY=1;entryDx=0;entryDy=0;exitX=0.5;exitY=0;exitDx=0;exitDy=0;" edge="1" parent="1" source="QztkROLiBsuZBcDPhcuY-5" target="9AxvPlQ-T_DmJaR9HOEs-42">
          <mxGeometry relative="1" as="geometry">
            <mxPoint x="5129.75" y="233.57" as="sourcePoint" />
            <mxPoint x="5279.75" y="154.57" as="targetPoint" />
          </mxGeometry>
        </mxCell>
        <mxCell id="QztkROLiBsuZBcDPhcuY-11" value="Battery subtree" style="whiteSpace=wrap;html=1;" vertex="1" parent="1">
          <mxGeometry x="5280" y="245.23" width="120" height="60" as="geometry" />
        </mxCell>
        <mxCell id="QztkROLiBsuZBcDPhcuY-12" value="" style="rounded=0;orthogonalLoop=1;jettySize=auto;html=1;endArrow=none;endFill=0;entryX=0.5;entryY=1;entryDx=0;entryDy=0;exitX=0.5;exitY=0;exitDx=0;exitDy=0;" edge="1" parent="1" source="QztkROLiBsuZBcDPhcuY-11" target="9AxvPlQ-T_DmJaR9HOEs-42">
          <mxGeometry relative="1" as="geometry">
            <mxPoint x="5373.75" y="220.57" as="sourcePoint" />
            <mxPoint x="5269.75" y="144.57" as="targetPoint" />
          </mxGeometry>
        </mxCell>
        <mxCell id="yQ7NAzXgi_w1m3QNSc_w-1" value="Inverter" style="rhombus;whiteSpace=wrap;html=1;strokeWidth=2;shadow=1;" vertex="1" parent="1">
          <mxGeometry x="4700" y="185.36" width="90" height="143.15" as="geometry" />
        </mxCell>
        <mxCell id="yQ7NAzXgi_w1m3QNSc_w-2" value="" style="rounded=0;orthogonalLoop=1;jettySize=auto;html=1;endArrow=none;endFill=0;exitX=0.5;exitY=0;exitDx=0;exitDy=0;entryX=0.5;entryY=1;entryDx=0;entryDy=0;" edge="1" parent="1" source="yQ7NAzXgi_w1m3QNSc_w-1" target="QztkROLiBsuZBcDPhcuY-2">
          <mxGeometry relative="1" as="geometry">
            <mxPoint x="4755" y="373" as="sourcePoint" />
            <mxPoint x="4755" y="339" as="targetPoint" />
          </mxGeometry>
        </mxCell>
        <mxCell id="KiJBfM6vUvrfbXQjUKgz-97" style="rounded=0;orthogonalLoop=1;jettySize=auto;html=1;exitX=0.5;exitY=1;exitDx=0;exitDy=0;entryX=0.5;entryY=0;entryDx=0;entryDy=0;endArrow=none;endFill=0;curved=0;flowAnimation=0;" edge="1" parent="1" source="KiJBfM6vUvrfbXQjUKgz-92" target="KiJBfM6vUvrfbXQjUKgz-94">
          <mxGeometry relative="1" as="geometry" />
        </mxCell>
        <mxCell id="KiJBfM6vUvrfbXQjUKgz-98" style="rounded=0;orthogonalLoop=1;jettySize=auto;html=1;exitX=0.5;exitY=1;exitDx=0;exitDy=0;entryX=0.5;entryY=0;entryDx=0;entryDy=0;endArrow=none;endFill=0;curved=0;flowAnimation=0;" edge="1" parent="1" source="KiJBfM6vUvrfbXQjUKgz-92" target="KiJBfM6vUvrfbXQjUKgz-95">
          <mxGeometry relative="1" as="geometry" />
        </mxCell>
        <mxCell id="KiJBfM6vUvrfbXQjUKgz-100" style="rounded=0;orthogonalLoop=1;jettySize=auto;html=1;exitX=0.5;exitY=1;exitDx=0;exitDy=0;entryX=0.5;entryY=0;entryDx=0;entryDy=0;endArrow=none;endFill=0;curved=0;flowAnimation=0;" edge="1" parent="1" source="KiJBfM6vUvrfbXQjUKgz-92" target="KiJBfM6vUvrfbXQjUKgz-99">
          <mxGeometry relative="1" as="geometry" />
        </mxCell>
        <mxCell id="KiJBfM6vUvrfbXQjUKgz-92" value="&lt;font face=&quot;Georgia&quot; color=&quot;#8d74b4&quot; style=&quot;font-size: 20px;&quot;&gt;&lt;b&gt;? &lt;/b&gt;&lt;/font&gt;&lt;font face=&quot;Georgia&quot; color=&quot;#8d74b4&quot; style=&quot;font-size: 16px;&quot;&gt;Fallback&lt;/font&gt;&lt;div&gt;&lt;span style=&quot;font-size: 14px; font-family: NC9FJVuSPFydV3I2bUTl; background-color: initial;&quot;&gt;lidar_fallback&lt;/span&gt;&lt;/div&gt;" style="rounded=1;whiteSpace=wrap;html=1;align=center;" vertex="1" parent="1">
          <mxGeometry x="-1165" y="-1520" width="120" height="60" as="geometry" />
        </mxCell>
        <mxCell id="KiJBfM6vUvrfbXQjUKgz-96" style="rounded=0;orthogonalLoop=1;jettySize=auto;html=1;exitX=0.5;exitY=0;exitDx=0;exitDy=0;entryX=0.5;entryY=1;entryDx=0;entryDy=0;endArrow=none;endFill=0;curved=0;flowAnimation=0;" edge="1" parent="1" source="KiJBfM6vUvrfbXQjUKgz-93" target="KiJBfM6vUvrfbXQjUKgz-92">
          <mxGeometry relative="1" as="geometry" />
        </mxCell>
        <mxCell id="KiJBfM6vUvrfbXQjUKgz-114" style="rounded=0;orthogonalLoop=1;jettySize=auto;html=1;exitX=0.5;exitY=1;exitDx=0;exitDy=0;entryX=0.5;entryY=0;entryDx=0;entryDy=0;endArrow=none;endFill=0;" edge="1" parent="1" source="KiJBfM6vUvrfbXQjUKgz-93" target="KiJBfM6vUvrfbXQjUKgz-110">
          <mxGeometry relative="1" as="geometry" />
        </mxCell>
        <mxCell id="KiJBfM6vUvrfbXQjUKgz-115" style="rounded=0;orthogonalLoop=1;jettySize=auto;html=1;entryX=0.5;entryY=0;entryDx=0;entryDy=0;endArrow=none;endFill=0;exitX=0.5;exitY=1;exitDx=0;exitDy=0;" edge="1" parent="1" source="KiJBfM6vUvrfbXQjUKgz-93" target="KiJBfM6vUvrfbXQjUKgz-109">
          <mxGeometry relative="1" as="geometry" />
        </mxCell>
        <mxCell id="KiJBfM6vUvrfbXQjUKgz-116" style="rounded=0;orthogonalLoop=1;jettySize=auto;html=1;entryX=0.5;entryY=0;entryDx=0;entryDy=0;endArrow=none;endFill=0;exitX=0.5;exitY=1;exitDx=0;exitDy=0;" edge="1" parent="1" source="KiJBfM6vUvrfbXQjUKgz-93" target="KiJBfM6vUvrfbXQjUKgz-108">
          <mxGeometry relative="1" as="geometry" />
        </mxCell>
        <mxCell id="KiJBfM6vUvrfbXQjUKgz-93" value="&lt;font color=&quot;#b5739d&quot;&gt;&lt;font style=&quot;font-size: 23px;&quot;&gt;&lt;b style=&quot;&quot;&gt;&lt;span style=&quot;font-family: Verdana;&quot;&gt;→&lt;/span&gt;&lt;font face=&quot;Georgia&quot; style=&quot;font-size: 23px;&quot;&gt;&amp;nbsp;&lt;/font&gt;&lt;/b&gt;&lt;/font&gt;&lt;font face=&quot;Georgia&quot; style=&quot;font-size: 16px;&quot;&gt;Sequence&lt;/font&gt;&lt;/font&gt;&lt;div&gt;&lt;span style=&quot;font-size: 14px; font-family: NC9FJVuSPFydV3I2bUTl; background-color: initial;&quot;&gt;lidar_first_recover_seq&lt;/span&gt;&lt;/div&gt;" style="rounded=1;whiteSpace=wrap;html=1;align=center;" vertex="1" parent="1">
          <mxGeometry x="-1670" y="-1335" width="160" height="80" as="geometry" />
        </mxCell>
        <mxCell id="KiJBfM6vUvrfbXQjUKgz-117" style="rounded=0;orthogonalLoop=1;jettySize=auto;html=1;exitX=0.5;exitY=1;exitDx=0;exitDy=0;endArrow=none;endFill=0;" edge="1" parent="1" source="KiJBfM6vUvrfbXQjUKgz-94" target="KiJBfM6vUvrfbXQjUKgz-104">
          <mxGeometry relative="1" as="geometry" />
        </mxCell>
        <mxCell id="KiJBfM6vUvrfbXQjUKgz-118" style="rounded=0;orthogonalLoop=1;jettySize=auto;html=1;endArrow=none;endFill=0;exitX=0.5;exitY=1;exitDx=0;exitDy=0;" edge="1" parent="1" source="KiJBfM6vUvrfbXQjUKgz-94" target="KiJBfM6vUvrfbXQjUKgz-105">
          <mxGeometry relative="1" as="geometry" />
        </mxCell>
        <mxCell id="KiJBfM6vUvrfbXQjUKgz-119" style="rounded=0;orthogonalLoop=1;jettySize=auto;html=1;entryX=0.5;entryY=0;entryDx=0;entryDy=0;exitX=0.5;exitY=1;exitDx=0;exitDy=0;endArrow=none;endFill=0;" edge="1" parent="1" source="KiJBfM6vUvrfbXQjUKgz-94" target="KiJBfM6vUvrfbXQjUKgz-103">
          <mxGeometry relative="1" as="geometry" />
        </mxCell>
        <mxCell id="KiJBfM6vUvrfbXQjUKgz-94" value="&lt;font color=&quot;#b5739d&quot;&gt;&lt;font style=&quot;font-size: 23px;&quot;&gt;&lt;b style=&quot;&quot;&gt;&lt;span style=&quot;font-family: Verdana;&quot;&gt;→&lt;/span&gt;&lt;font face=&quot;Georgia&quot; style=&quot;font-size: 23px;&quot;&gt;&amp;nbsp;&lt;/font&gt;&lt;/b&gt;&lt;/font&gt;&lt;font face=&quot;Georgia&quot; style=&quot;font-size: 16px;&quot;&gt;Sequence&lt;/font&gt;&lt;/font&gt;&lt;div&gt;&lt;span style=&quot;font-size: 14px; font-family: NC9FJVuSPFydV3I2bUTl; background-color: initial;&quot;&gt;lidar_second_recover_seq&lt;/span&gt;&lt;/div&gt;" style="rounded=1;whiteSpace=wrap;html=1;align=center;" vertex="1" parent="1">
          <mxGeometry x="-1093.75" y="-1325" width="157.5" height="80" as="geometry" />
        </mxCell>
        <mxCell id="KiJBfM6vUvrfbXQjUKgz-121" style="rounded=0;orthogonalLoop=1;jettySize=auto;html=1;exitX=0.5;exitY=1;exitDx=0;exitDy=0;endArrow=none;endFill=0;" edge="1" parent="1" source="KiJBfM6vUvrfbXQjUKgz-95" target="KiJBfM6vUvrfbXQjUKgz-101">
          <mxGeometry relative="1" as="geometry" />
        </mxCell>
        <mxCell id="KiJBfM6vUvrfbXQjUKgz-122" style="rounded=0;orthogonalLoop=1;jettySize=auto;html=1;endArrow=none;endFill=0;exitX=0.5;exitY=1;exitDx=0;exitDy=0;" edge="1" parent="1" source="KiJBfM6vUvrfbXQjUKgz-95" target="KiJBfM6vUvrfbXQjUKgz-102">
          <mxGeometry relative="1" as="geometry" />
        </mxCell>
        <mxCell id="KiJBfM6vUvrfbXQjUKgz-95" value="&lt;font color=&quot;#b5739d&quot;&gt;&lt;font style=&quot;font-size: 23px;&quot;&gt;&lt;b style=&quot;&quot;&gt;&lt;span style=&quot;font-family: Verdana;&quot;&gt;→&lt;/span&gt;&lt;font face=&quot;Georgia&quot; style=&quot;font-size: 23px;&quot;&gt;&amp;nbsp;&lt;/font&gt;&lt;/b&gt;&lt;/font&gt;&lt;font face=&quot;Georgia&quot; style=&quot;font-size: 16px;&quot;&gt;Sequence&lt;/font&gt;&lt;/font&gt;&lt;div&gt;&lt;span style=&quot;font-size: 14px; font-family: NC9FJVuSPFydV3I2bUTl; background-color: initial;&quot;&gt;lidar_complete_failure_seq&lt;/span&gt;&lt;/div&gt;" style="rounded=1;whiteSpace=wrap;html=1;align=center;" vertex="1" parent="1">
          <mxGeometry x="-575" y="-1325" width="170" height="80" as="geometry" />
        </mxCell>
        <mxCell id="KiJBfM6vUvrfbXQjUKgz-99" value="&lt;font color=&quot;#97d077&quot;&gt;&lt;font face=&quot;Georgia&quot; style=&quot;font-size: 20px;&quot;&gt;&lt;b style=&quot;&quot;&gt;C:&amp;nbsp;&lt;/b&gt;&lt;/font&gt;&lt;font face=&quot;Georgia&quot; style=&quot;font-size: 16px;&quot;&gt;LidarCheck&lt;/font&gt;&lt;/font&gt;&lt;div&gt;&lt;span style=&quot;font-size: 14px; font-family: NC9FJVuSPFydV3I2bUTl; background-color: initial;&quot;&gt;lidar_check&lt;/span&gt;&lt;/div&gt;" style="rounded=1;whiteSpace=wrap;html=1;align=center;" vertex="1" parent="1">
          <mxGeometry x="-1870" y="-1325" width="120" height="60" as="geometry" />
        </mxCell>
        <mxCell id="KiJBfM6vUvrfbXQjUKgz-101" value="&lt;font face=&quot;Georgia&quot; style=&quot;font-size: 20px;&quot;&gt;&lt;b style=&quot;&quot;&gt;A:&amp;nbsp;&lt;/b&gt;&lt;/font&gt;&lt;font face=&quot;Georgia&quot; style=&quot;font-size: 16px;&quot;&gt;CancelTask&lt;/font&gt;&lt;div&gt;&lt;span style=&quot;font-size: 14px; font-family: NC9FJVuSPFydV3I2bUTl; background-color: initial;&quot;&gt;cancel_task&lt;/span&gt;&lt;/div&gt;" style="rounded=1;whiteSpace=wrap;html=1;align=center;" vertex="1" parent="1">
          <mxGeometry x="-655" y="-1185" width="120" height="60" as="geometry" />
        </mxCell>
        <mxCell id="KiJBfM6vUvrfbXQjUKgz-102" value="&lt;font face=&quot;Georgia&quot; style=&quot;font-size: 20px;&quot;&gt;&lt;b style=&quot;&quot;&gt;A:&amp;nbsp;&lt;/b&gt;&lt;/font&gt;&lt;font face=&quot;Georgia&quot; style=&quot;font-size: 16px;&quot;&gt;SetLidarFailureState&lt;/font&gt;&lt;div&gt;&lt;span style=&quot;font-size: 14px; font-family: NC9FJVuSPFydV3I2bUTl; background-color: initial;&quot;&gt;set_lidar_failure_state&lt;/span&gt;&lt;/div&gt;" style="rounded=1;whiteSpace=wrap;html=1;align=center;" vertex="1" parent="1">
          <mxGeometry x="-445" y="-1195" width="200" height="80" as="geometry" />
        </mxCell>
        <mxCell id="KiJBfM6vUvrfbXQjUKgz-103" value="&lt;font face=&quot;Georgia&quot; style=&quot;font-size: 20px;&quot;&gt;&lt;b style=&quot;&quot;&gt;A:&amp;nbsp;&lt;/b&gt;&lt;/font&gt;&lt;font face=&quot;Georgia&quot; style=&quot;font-size: 16px;&quot;&gt;SpeedRestore&lt;/font&gt;&lt;div&gt;&lt;span style=&quot;font-size: 14px; font-family: NC9FJVuSPFydV3I2bUTl; background-color: initial;&quot;&gt;speed_restore&lt;/span&gt;&lt;/div&gt;" style="rounded=1;whiteSpace=wrap;html=1;align=center;" vertex="1" parent="1">
          <mxGeometry x="-860" y="-1165" width="140" height="70" as="geometry" />
        </mxCell>
        <mxCell id="KiJBfM6vUvrfbXQjUKgz-104" value="&lt;font face=&quot;Georgia&quot; style=&quot;font-size: 20px;&quot;&gt;&lt;b style=&quot;&quot;&gt;A:&amp;nbsp;&lt;/b&gt;&lt;/font&gt;&lt;font face=&quot;Georgia&quot; style=&quot;font-size: 16px;&quot;&gt;FullStop&lt;/font&gt;&lt;div&gt;&lt;span style=&quot;font-size: 14px; font-family: NC9FJVuSPFydV3I2bUTl; background-color: initial;&quot;&gt;full_stop&lt;/span&gt;&lt;/div&gt;" style="rounded=1;whiteSpace=wrap;html=1;align=center;" vertex="1" parent="1">
          <mxGeometry x="-1290" y="-1155" width="120" height="60" as="geometry" />
        </mxCell>
        <mxCell id="KiJBfM6vUvrfbXQjUKgz-120" style="rounded=0;orthogonalLoop=1;jettySize=auto;html=1;endArrow=none;endFill=0;" edge="1" parent="1" source="KiJBfM6vUvrfbXQjUKgz-105" target="KiJBfM6vUvrfbXQjUKgz-107">
          <mxGeometry relative="1" as="geometry" />
        </mxCell>
        <mxCell id="KiJBfM6vUvrfbXQjUKgz-105" value="&lt;font color=&quot;#80ff00&quot;&gt;&lt;font style=&quot;&quot;&gt;&lt;font style=&quot;&quot;&gt;&lt;font style=&quot;&quot; face=&quot;Verdana&quot;&gt;&lt;span style=&quot;font-size: 23px;&quot;&gt;&lt;b style=&quot;&quot;&gt;↻&lt;/b&gt;&lt;/span&gt;&lt;/font&gt;&lt;font style=&quot;font-size: 23px;&quot; face=&quot;Georgia&quot;&gt;&lt;b&gt;&amp;nbsp;&lt;/b&gt;&lt;/font&gt;&lt;/font&gt;&lt;/font&gt;&lt;font face=&quot;Georgia&quot; style=&quot;font-size: 16px;&quot;&gt;RetryUntilSuccessfull&lt;/font&gt;&lt;/font&gt;&lt;div&gt;&lt;span style=&quot;font-size: 14px; font-family: NC9FJVuSPFydV3I2bUTl; background-color: initial;&quot;&gt;RetryUntilSuccessfull&lt;/span&gt;&lt;/div&gt;&lt;div&gt;&lt;span style=&quot;font-size: 14px; font-family: NC9FJVuSPFydV3I2bUTl; background-color: initial;&quot;&gt;[IN] num_attempts&amp;nbsp;&lt;/span&gt;&lt;span style=&quot;font-size: 14px; font-family: NC9FJVuSPFydV3I2bUTl; background-color: rgb(179, 179, 179);&quot;&gt;&amp;nbsp; &amp;nbsp; &amp;nbsp; &lt;b&gt;2&lt;/b&gt;&amp;nbsp; &amp;nbsp; &amp;nbsp;&amp;nbsp;&lt;/span&gt;&lt;/div&gt;" style="rounded=1;whiteSpace=wrap;html=1;align=center;" vertex="1" parent="1">
          <mxGeometry x="-1120" y="-1180" width="210" height="110" as="geometry" />
        </mxCell>
        <mxCell id="KiJBfM6vUvrfbXQjUKgz-107" value="&lt;font face=&quot;Georgia&quot; style=&quot;font-size: 20px;&quot;&gt;&lt;b style=&quot;&quot;&gt;A:&amp;nbsp;&lt;/b&gt;&lt;/font&gt;&lt;font face=&quot;Georgia&quot; style=&quot;font-size: 16px;&quot;&gt;LidarRestart&lt;/font&gt;&lt;div&gt;&lt;span style=&quot;font-size: 14px; font-family: NC9FJVuSPFydV3I2bUTl; background-color: initial;&quot;&gt;lidar_restart&lt;/span&gt;&lt;/div&gt;" style="rounded=1;whiteSpace=wrap;html=1;align=center;" vertex="1" parent="1">
          <mxGeometry x="-1085" y="-1015" width="140" height="70" as="geometry" />
        </mxCell>
        <mxCell id="KiJBfM6vUvrfbXQjUKgz-108" value="&lt;font face=&quot;Georgia&quot; style=&quot;font-size: 20px;&quot;&gt;&lt;b style=&quot;&quot;&gt;A:&amp;nbsp;&lt;/b&gt;&lt;/font&gt;&lt;font face=&quot;Georgia&quot; style=&quot;font-size: 16px;&quot;&gt;SpeedRestore&lt;/font&gt;&lt;div&gt;&lt;span style=&quot;font-size: 14px; font-family: NC9FJVuSPFydV3I2bUTl; background-color: initial;&quot;&gt;speed_restore&lt;/span&gt;&lt;/div&gt;" style="rounded=1;whiteSpace=wrap;html=1;align=center;" vertex="1" parent="1">
          <mxGeometry x="-1470" y="-1165" width="140" height="70" as="geometry" />
        </mxCell>
        <mxCell id="KiJBfM6vUvrfbXQjUKgz-109" value="&lt;font face=&quot;Georgia&quot; style=&quot;font-size: 20px;&quot;&gt;&lt;b style=&quot;&quot;&gt;A:&amp;nbsp;&lt;/b&gt;&lt;/font&gt;&lt;font face=&quot;Georgia&quot; style=&quot;font-size: 16px;&quot;&gt;LidarRestart&lt;/font&gt;&lt;div&gt;&lt;span style=&quot;font-size: 14px; font-family: NC9FJVuSPFydV3I2bUTl; background-color: initial;&quot;&gt;lidar_restart&lt;/span&gt;&lt;/div&gt;" style="rounded=1;whiteSpace=wrap;html=1;align=center;" vertex="1" parent="1">
          <mxGeometry x="-1660" y="-1165" width="140" height="70" as="geometry" />
        </mxCell>
        <mxCell id="KiJBfM6vUvrfbXQjUKgz-110" value="&lt;font face=&quot;Georgia&quot; style=&quot;font-size: 20px;&quot;&gt;&lt;b style=&quot;&quot;&gt;A:&amp;nbsp;&lt;/b&gt;&lt;/font&gt;&lt;font face=&quot;Georgia&quot; style=&quot;font-size: 16px;&quot;&gt;SpeedReduce&lt;/font&gt;&lt;div&gt;&lt;span style=&quot;font-size: 14px; font-family: NC9FJVuSPFydV3I2bUTl; background-color: initial;&quot;&gt;speed_reduce&lt;/span&gt;&lt;/div&gt;" style="rounded=1;whiteSpace=wrap;html=1;align=center;" vertex="1" parent="1">
          <mxGeometry x="-1850" y="-1165" width="140" height="70" as="geometry" />
        </mxCell>
      </root>
    </mxGraphModel>
  </diagram>
</mxfile>
